<svg width="265" height="367" viewBox="0 0 265 367" fill="none" xmlns="http://www.w3.org/2000/svg">
<path fill-rule="evenodd" clip-rule="evenodd" d="M152.402 54.9163H160.097C163.157 54.9163 165.661 52.4133 165.661 49.3537C165.661 46.2946 163.157 43.791 160.097 43.791H152.402C149.342 43.791 146.838 46.2946 146.838 49.3537C146.838 52.4133 149.342 54.9163 152.402 54.9163Z" fill="#3E3D3D"/>
<path d="M122.315 65.43C123.477 62.2865 127.883 60.4308 132.157 61.2851C136.43 62.1394 138.953 65.3803 137.792 68.5237L131.932 84.382C130.771 87.5254 130.38 88.4264 125.106 88.4264C122.874 88.4264 119.469 88.4264 117.544 88.4264C114.789 88.4264 113.943 86.6467 116.455 81.2882L122.315 65.43Z" fill="#3E3D3D"/>
<path fill-rule="evenodd" clip-rule="evenodd" d="M150.011 0C146.705 0 144.026 2.67876 144.026 5.98326C144.026 9.28778 146.705 11.9671 150.011 11.9671C153.317 11.9671 155.997 9.28778 155.997 5.98326C155.997 2.67876 153.317 0 150.011 0ZM104.922 56.4232C104.922 69.6112 115.715 80.4017 128.907 80.4017H131.212C144.405 80.4017 155.198 69.6112 155.198 56.4232V43.4805C155.198 30.2925 144.405 19.502 131.212 19.502H128.907C115.715 19.502 104.922 30.2925 104.922 43.4805V56.4232Z" fill="white"/>
<path d="M147.606 11.4649C143.682 14.8811 141.448 18.6587 140.774 23.8043C140.65 24.7509 139.782 25.4178 138.835 25.2939C137.889 25.1699 137.221 24.3021 137.345 23.3555C138.121 17.4298 140.665 13.0402 144.957 9.19043C145.591 10.188 146.513 10.985 147.606 11.4649Z" fill="#3E3D3D"/>
<path fill-rule="evenodd" clip-rule="evenodd" d="M137.912 45.1622C138.214 46.8713 137.074 48.5008 135.364 48.8027C133.655 49.1046 132.025 47.9643 131.723 46.2553C131.421 44.5469 132.561 42.9168 134.271 42.6149C135.98 42.3129 137.611 43.4532 137.912 45.1622Z" fill="#3E3D3D"/>
<path fill-rule="evenodd" clip-rule="evenodd" d="M154.229 45.2296C154.531 46.9386 153.39 48.5681 151.681 48.87C149.972 49.172 148.342 48.0317 148.04 46.3227C147.738 44.6142 148.878 42.9842 150.588 42.6822C152.297 42.3803 153.927 43.5212 154.229 45.2296Z" fill="#3E3D3D"/>
<path opacity="0.403971" fill-rule="evenodd" clip-rule="evenodd" d="M141.602 41.7695L149.533 54.3503L140.996 54.5566L141.602 41.7695Z" fill="#484848"/>
<path fill-rule="evenodd" clip-rule="evenodd" d="M101.564 53.7259H109.03V42.6006H101.564C98.5037 42.6006 96 45.1042 96 48.1632C96 51.2228 98.5037 53.7259 101.564 53.7259Z" fill="#3E3D3D"/>
<path d="M132.299 56.7641C136.076 56.1245 139.606 58.2807 139.989 60.5405" stroke="#3E3D3D" stroke-width="4"/>
<path d="M129.998 37.1562L139.658 39.7444" stroke="#3E3D3D" stroke-width="4"/>
<path d="M144.998 39.7212L154.341 36.1563" stroke="#3E3D3D" stroke-width="4"/>
<path fill-rule="evenodd" clip-rule="evenodd" d="M242.545 366.477H0C1.12045 337.695 18.7958 325.398 45.7517 324.717C63.5452 276.49 102.532 325.694 105.339 287.546C108.636 242.685 109.584 189.811 109.584 189.811L132.569 190.192C132.569 190.192 134.489 218.499 138.471 276.169C141.296 317.019 170.068 279.134 207.86 303.89C226.937 316.387 226.086 346.619 226.086 346.619C226.086 346.619 242.545 347.443 242.545 366.477Z" fill="white"/>
<path fill-rule="evenodd" clip-rule="evenodd" d="M83.3365 366.477H23.8442C26.4321 353.713 37.481 344.403 50.4953 343.127C52.9909 342.89 55.5558 342.939 58.1494 343.315C59.6422 343.536 61.0946 343.85 62.5009 344.265C66.3568 345.398 69.8496 347.232 72.8351 349.597C78.2241 353.847 81.982 359.814 83.3365 366.477Z" fill="#434343"/>
<path fill-rule="evenodd" clip-rule="evenodd" d="M215.56 366.477H183.364C184.684 360.604 188.886 355.846 194.413 354.039C195.716 353.614 197.093 353.349 198.528 353.277C199.353 353.233 200.171 353.255 200.966 353.338C207.981 354.051 213.842 359.366 215.56 366.477Z" fill="#434343"/>
<path fill-rule="evenodd" clip-rule="evenodd" d="M163.215 366.477H71.2154C70.835 362.842 70.9215 359.106 71.5209 355.332C71.8321 353.371 72.2759 351.454 72.835 349.597C79.198 328.567 100.99 314.797 124.183 318.179C129.664 318.98 134.771 320.672 139.37 323.08C155.318 331.413 165.157 348.343 163.215 366.477Z" fill="#434343"/>
<path fill-rule="evenodd" clip-rule="evenodd" d="M90.1673 282.843C89.4128 287.596 84.7817 290.863 79.8239 290.14C74.8654 289.416 71.4579 284.977 72.2124 280.224C72.9669 275.47 77.5974 272.203 82.5558 272.927C87.5137 273.65 90.9217 278.089 90.1673 282.843Z" fill="#434343"/>
<path fill-rule="evenodd" clip-rule="evenodd" d="M156.098 284.493C155.787 286.455 153.876 287.803 151.83 287.505C149.783 287.206 148.377 285.374 148.688 283.412C149 281.45 150.911 280.102 152.957 280.401C155.003 280.699 156.409 282.531 156.098 284.493Z" fill="#434343"/>
<path fill-rule="evenodd" clip-rule="evenodd" d="M263.906 344.229C263.188 348.756 258.777 351.867 254.055 351.179C249.333 350.49 246.087 346.261 246.806 341.734C247.525 337.207 251.935 334.096 256.657 334.785C261.38 335.473 264.625 339.702 263.906 344.229Z" fill="#434343"/>
<path fill-rule="evenodd" clip-rule="evenodd" d="M94.5172 172.79H149.434C152.618 172.79 155.198 170.316 155.198 167.265C155.198 164.213 152.618 161.739 149.434 161.739H94.5172C91.3339 161.739 88.7535 164.213 88.7535 167.265C88.7535 170.316 91.3339 172.79 94.5172 172.79ZM106.724 196.085H137.227L148.755 172.79H95.1972L106.724 196.085Z" fill="white"/>
<path opacity="0.402158" fill-rule="evenodd" clip-rule="evenodd" d="M137.13 196.084H106.627L95.1 172.79H148.657L137.13 196.084Z" fill="#484848"/>
<path d="M73.5832 234.696C78.0562 237.071 81.3445 241.515 82.0062 246.828C82.0794 247.415 82.1197 247.998 82.1295 248.574C82.1728 251.187 78.8783 252.332 77.2846 250.261C75.4662 247.897 73.0576 246.534 70.5389 246.757C65.706 247.185 62.2997 253.296 62.9291 260.408C62.9303 260.423 62.9314 260.438 62.9332 260.453C63.1257 262.573 60.962 264.105 59.0548 263.16C54.2237 260.77 50.7171 255.993 50.2071 250.23C49.5967 243.336 53.459 237.078 59.396 234.319V121.877C54.3722 119.175 50.9574 113.87 50.9574 107.768C50.9574 101.132 54.9957 95.4384 60.7498 93.0104C62.8336 88.9311 67.0828 86.1213 71.9564 86.1213H171.584C176.023 86.1213 179.945 88.4525 182.183 91.9511C189.514 90.7948 196.901 94.8804 199.638 102.092C202.592 109.874 199.079 118.523 191.758 122.128V235.591C197.052 238.695 200.303 244.718 199.561 251.204C198.903 256.952 195.275 261.637 190.385 263.904C188.453 264.799 186.33 263.212 186.577 261.099C186.579 261.083 186.58 261.068 186.582 261.054C187.394 253.96 184.145 247.763 179.325 247.212C176.813 246.925 174.37 248.226 172.491 250.542C170.845 252.572 167.581 251.343 167.691 248.732C167.716 248.156 167.771 247.574 167.859 246.99C168.713 241.319 172.553 236.723 177.571 234.628V130.337C175.788 131.309 173.747 131.863 171.584 131.863H73.5832V234.696Z" fill="white"/>
<path fill-rule="evenodd" clip-rule="evenodd" d="M123.419 119.533C119.615 119.533 116.503 116.421 116.503 112.618V103.717C116.503 99.9143 119.615 96.8029 123.419 96.8029H161.679C165.483 96.8029 168.595 99.9143 168.595 103.717V112.618C168.595 116.421 165.483 119.533 161.679 119.533H123.419ZM122.016 108.168C122.016 112.523 125.547 116.053 129.904 116.053C134.259 116.053 137.791 112.523 137.791 108.168C137.791 103.813 134.259 100.283 129.904 100.283C125.547 100.283 122.016 103.813 122.016 108.168ZM143.662 108.168C143.662 112.523 147.193 116.053 151.549 116.053C155.905 116.053 159.436 112.523 159.436 108.168C159.436 103.813 155.905 100.283 151.549 100.283C147.193 100.283 143.662 103.813 143.662 108.168Z" fill="#3E3D3D"/>
<path opacity="0.401228" fill-rule="evenodd" clip-rule="evenodd" d="M177.571 234.388V130.373C179.258 128.791 180.387 127.645 180.955 126.934C181.828 125.842 182.579 124.786 183.032 124.23C183.151 124.083 183.289 123.839 183.316 123.787C183.343 123.736 183.337 123.732 183.386 123.736C183.89 123.775 184.24 123.787 184.664 123.787C185.648 123.787 186.844 123.677 188.181 123.395C188.623 123.302 189.243 123.123 190.002 122.869C190.359 122.749 190.944 122.504 191.758 122.131V234.388H177.571ZM182.183 91.9511C189.514 90.7948 196.901 94.8804 199.638 102.092C202.776 110.359 198.616 119.604 190.346 122.741C188.036 123.618 185.65 123.925 183.343 123.732C183.868 122.351 184.156 120.854 184.156 119.294V98.6905C184.156 96.2156 183.431 93.9019 182.183 91.9511ZM63.1224 123.313C63.2371 123.339 63.3545 123.363 63.4748 123.385C63.9216 123.468 64.4405 123.577 65.0297 123.662C65.6666 123.739 66.3151 123.779 66.9728 123.779C75.8182 123.779 82.9882 116.61 82.9882 107.768C82.9882 98.9254 75.8182 91.7569 66.9728 91.7569C64.7657 91.7569 62.6629 92.2032 60.7497 93.0104C62.8336 88.9311 67.0827 86.1213 71.9563 86.1213H87.732C94.6466 86.1213 100.304 91.7773 100.304 98.6905V119.294C100.304 126.207 94.6466 131.863 87.732 131.863H73.5832V234.388H59.396V121.884C59.4949 121.935 59.5919 121.985 59.6869 122.034L59.6859 122.029C60.7662 122.582 61.9174 123.016 63.1224 123.313Z" fill="#484848"/>
<path d="M191.758 218.813H194.258V216.313H191.758V218.813ZM177.571 218.813V216.313H175.071V218.813H177.571ZM191.758 223.813V226.313H194.258V223.813H191.758ZM177.571 223.813H175.071V226.313H177.571V223.813ZM191.758 206.713H194.258V204.213H191.758V206.713ZM177.571 206.713V204.213H175.071V206.713H177.571ZM191.758 211.713V214.213H194.258V211.713H191.758ZM177.571 211.713H175.071V214.213H177.571V211.713ZM191.758 194.613H194.258V192.113H191.758V194.613ZM177.571 194.613V192.113H175.071V194.613H177.571ZM191.758 199.613V202.113H194.258V199.613H191.758ZM177.571 199.613H175.071V202.113H177.571V199.613ZM191.758 182.513H194.258V180.013H191.758V182.513ZM177.571 182.513V180.013H175.071V182.513H177.571ZM191.758 187.513V190.013H194.258V187.513H191.758ZM177.571 187.513H175.071V190.013H177.571V187.513ZM191.758 170.412H194.258V167.912H191.758V170.412ZM177.571 170.412V167.912H175.071V170.412H177.571ZM191.758 175.412V177.912H194.258V175.412H191.758ZM177.571 175.412H175.071V177.912H177.571V175.412ZM191.758 158.312H194.258V155.812H191.758V158.312ZM177.571 158.312V155.812H175.071V158.312H177.571ZM191.758 163.312V165.812H194.258V163.312H191.758ZM177.571 163.312H175.071V165.812H177.571V163.312ZM191.758 146.212H194.258V143.712H191.758V146.212ZM177.571 146.212V143.712H175.071V146.212H177.571ZM191.758 151.212V153.712H194.258V151.212H191.758ZM177.571 151.212H175.071V153.712H177.571V151.212ZM191.758 134.112H194.258V131.612H191.758V134.112ZM177.571 134.112V131.612H175.071V134.112H177.571ZM191.758 139.112V141.612H194.258V139.112H191.758ZM177.571 139.112H175.071V141.612H177.571V139.112ZM73.5829 218.813H76.0829V216.313H73.5829V218.813ZM59.3958 218.813V216.313H56.8958V218.813H59.3958ZM73.5829 223.813V226.313H76.0829V223.813H73.5829ZM59.3958 223.813H56.8958V226.313H59.3958V223.813ZM73.5829 206.713H76.0829V204.213H73.5829V206.713ZM59.3958 206.713V204.213H56.8958V206.713H59.3958ZM73.5829 211.713V214.213H76.0829V211.713H73.5829ZM59.3958 211.713H56.8958V214.213H59.3958V211.713ZM73.5829 194.613H76.0829V192.113H73.5829V194.613ZM59.3958 194.613V192.113H56.8958V194.613H59.3958ZM73.5829 199.613V202.113H76.0829V199.613H73.5829ZM59.3958 199.613H56.8958V202.113H59.3958V199.613ZM73.5829 182.513H76.0829V180.013H73.5829V182.513ZM59.3958 182.513V180.013H56.8958V182.513H59.3958ZM73.5829 187.513V190.013H76.0829V187.513H73.5829ZM59.3958 187.513H56.8958V190.013H59.3958V187.513ZM73.5829 170.412H76.0829V167.912H73.5829V170.412ZM59.3958 170.412V167.912H56.8958V170.412H59.3958ZM73.5829 175.412V177.912H76.0829V175.412H73.5829ZM59.3958 175.412H56.8958V177.912H59.3958V175.412ZM73.5829 158.312H76.0829V155.812H73.5829V158.312ZM59.3958 158.312V155.812H56.8958V158.312H59.3958ZM73.5829 163.312V165.812H76.0829V163.312H73.5829ZM59.3958 163.312H56.8958V165.812H59.3958V163.312ZM73.5829 146.212H76.0829V143.712H73.5829V146.212ZM59.3958 146.212V143.712H56.8958V146.212H59.3958ZM73.5829 151.212V153.712H76.0829V151.212H73.5829ZM59.3958 151.212H56.8958V153.712H59.3958V151.212ZM73.5829 134.112H76.0829V131.612H73.5829V134.112ZM59.3958 134.112V131.612H56.8958V134.112H59.3958ZM73.5829 139.112V141.612H76.0829V139.112H73.5829ZM59.3958 139.112H56.8958V141.612H59.3958V139.112ZM191.758 216.313H177.571V221.313H191.758V216.313ZM194.258 223.813V218.813H189.258V223.813H194.258ZM177.571 226.313H191.758V221.313H177.571V226.313ZM175.071 218.813V223.813H180.071V218.813H175.071ZM191.758 204.213H177.571V209.213H191.758V204.213ZM194.258 211.713V206.713H189.258V211.713H194.258ZM177.571 214.213H191.758V209.213H177.571V214.213ZM175.071 206.713V211.713H180.071V206.713H175.071ZM191.758 192.113H177.571V197.113H191.758V192.113ZM194.258 199.613V194.613H189.258V199.613H194.258ZM177.571 202.113H191.758V197.113H177.571V202.113ZM175.071 194.613V199.613H180.071V194.613H175.071ZM191.758 180.013H177.571V185.013H191.758V180.013ZM194.258 187.513V182.513H189.258V187.513H194.258ZM177.571 190.013H191.758V185.013H177.571V190.013ZM175.071 182.513V187.513H180.071V182.513H175.071ZM191.758 167.912H177.571V172.912H191.758V167.912ZM194.258 175.412V170.412H189.258V175.412H194.258ZM177.571 177.912H191.758V172.912H177.571V177.912ZM175.071 170.412V175.412H180.071V170.412H175.071ZM191.758 155.812H177.571V160.812H191.758V155.812ZM194.258 163.312V158.312H189.258V163.312H194.258ZM177.571 165.812H191.758V160.812H177.571V165.812ZM175.071 158.312V163.312H180.071V158.312H175.071ZM191.758 143.712H177.571V148.712H191.758V143.712ZM194.258 151.212V146.212H189.258V151.212H194.258ZM177.571 153.712H191.758V148.712H177.571V153.712ZM175.071 146.212V151.212H180.071V146.212H175.071ZM191.758 131.612H177.571V136.612H191.758V131.612ZM194.258 139.112V134.112H189.258V139.112H194.258ZM177.571 141.612H191.758V136.612H177.571V141.612ZM175.071 134.112V139.112H180.071V134.112H175.071ZM73.5829 216.313H59.3958V221.313H73.5829V216.313ZM76.0829 223.813V218.813H71.0829V223.813H76.0829ZM59.3958 226.313H73.5829V221.313H59.3958V226.313ZM56.8958 218.813V223.813H61.8958V218.813H56.8958ZM73.5829 204.213H59.3958V209.213H73.5829V204.213ZM76.0829 211.713V206.713H71.0829V211.713H76.0829ZM59.3958 214.213H73.5829V209.213H59.3958V214.213ZM56.8958 206.713V211.713H61.8958V206.713H56.8958ZM73.5829 192.113H59.3958V197.113H73.5829V192.113ZM76.0829 199.613V194.613H71.0829V199.613H76.0829ZM59.3958 202.113H73.5829V197.113H59.3958V202.113ZM56.8958 194.613V199.613H61.8958V194.613H56.8958ZM73.5829 180.013H59.3958V185.013H73.5829V180.013ZM76.0829 187.513V182.513H71.0829V187.513H76.0829ZM59.3958 190.013H73.5829V185.013H59.3958V190.013ZM56.8958 182.513V187.513H61.8958V182.513H56.8958ZM73.5829 167.912H59.3958V172.912H73.5829V167.912ZM76.0829 175.412V170.412H71.0829V175.412H76.0829ZM59.3958 177.912H73.5829V172.912H59.3958V177.912ZM56.8958 170.412V175.412H61.8958V170.412H56.8958ZM73.5829 155.812H59.3958V160.812H73.5829V155.812ZM76.0829 163.312V158.312H71.0829V163.312H76.0829ZM59.3958 165.812H73.5829V160.812H59.3958V165.812ZM56.8958 158.312V163.312H61.8958V158.312H56.8958ZM73.5829 143.712H59.3958V148.712H73.5829V143.712ZM76.0829 151.212V146.212H71.0829V151.212H76.0829ZM59.3958 153.712H73.5829V148.712H59.3958V153.712ZM56.8958 146.212V151.212H61.8958V146.212H56.8958ZM73.5829 131.612H59.3958V136.612H73.5829V131.612ZM76.0829 139.112V134.112H71.0829V139.112H76.0829ZM59.3958 141.612H73.5829V136.612H59.3958V141.612ZM56.8958 134.112V139.112H61.8958V134.112H56.8958Z" fill="#3E3D3D"/>
<path fill-rule="evenodd" clip-rule="evenodd" d="M111.238 161.7H131.278V129.912H111.238V161.7Z" fill="#3E3D3D"/>
</svg>
