<svg width="265" height="369" viewBox="0 0 265 369" fill="none" xmlns="http://www.w3.org/2000/svg">
<path fill-rule="evenodd" clip-rule="evenodd" d="M153.715 55.9108H161.726C164.911 55.9108 167.518 53.3625 167.518 50.2474C167.518 47.1329 164.911 44.584 161.726 44.584H153.715C150.529 44.584 147.923 47.1329 147.923 50.2474C147.923 53.3625 150.529 55.9108 153.715 55.9108Z" fill="#3E3D3D"/>
<path d="M122.394 66.6148C123.604 63.4143 128.19 61.525 132.64 62.3948C137.089 63.2646 139.715 66.5642 138.506 69.7646L132.406 85.9101C131.197 89.1105 130.79 90.0278 125.3 90.0278C122.976 90.0278 119.432 90.0278 117.427 90.0278C114.559 90.0278 113.679 88.2159 116.294 82.7603L122.394 66.6148Z" fill="#3E3D3D"/>
<path fill-rule="evenodd" clip-rule="evenodd" d="M151.226 0C147.784 0 144.995 2.72728 144.995 6.09166C144.995 9.45604 147.784 12.1839 151.226 12.1839C154.667 12.1839 157.457 9.45604 157.457 6.09166C157.457 2.72728 154.667 0 151.226 0ZM104.287 57.4453C104.287 70.8723 115.524 81.8583 129.256 81.8583H131.656C145.39 81.8583 156.626 70.8723 156.626 57.4453V44.2682C156.626 30.8412 145.39 19.8553 131.656 19.8553H129.256C115.524 19.8553 104.287 30.8412 104.287 44.2682V57.4453Z" fill="white"/>
<path d="M148.722 11.6721C144.637 15.1502 142.312 18.9963 141.61 24.235C141.481 25.1988 140.578 25.8778 139.592 25.7516C138.606 25.6254 137.912 24.7419 138.041 23.7781C138.849 17.7451 141.496 13.2759 145.964 9.35645C146.625 10.3721 147.585 11.1835 148.722 11.6721Z" fill="#3E3D3D"/>
<path d="M138.631 47.5989C138.317 45.859 136.619 44.698 134.84 45.0054C133.061 45.3128 131.873 46.9724 132.188 48.7118" stroke="#3E3D3D" stroke-width="2.5"/>
<path d="M155.617 47.6673C155.303 45.9279 153.605 44.7663 151.826 45.0737C150.047 45.3811 148.859 47.0407 149.174 48.7801" stroke="#3E3D3D" stroke-width="2.5"/>
<path opacity="0.403971" fill-rule="evenodd" clip-rule="evenodd" d="M142.472 42.5264L150.728 55.3351L141.841 55.5451L142.472 42.5264Z" fill="#484848"/>
<path fill-rule="evenodd" clip-rule="evenodd" d="M100.792 54.6989H108.564V43.3721H100.792C97.6064 43.3721 95 45.921 95 49.0355C95 52.1505 97.6064 54.6989 100.792 54.6989Z" fill="#3E3D3D"/>
<path d="M140.793 61.5206C136.862 62.1718 133.187 59.9766 132.788 57.6758" stroke="#3E3D3D" stroke-width="4"/>
<path d="M130.57 40.4644L140.625 37.8293" stroke="#3E3D3D" stroke-width="4"/>
<path d="M146.021 37.3081L156.076 39.9432" stroke="#3E3D3D" stroke-width="4"/>
<path fill-rule="evenodd" clip-rule="evenodd" d="M243.047 368.477H0.501953C1.6224 339.695 19.2977 327.398 46.2537 326.717C64.0472 278.49 103.034 327.694 105.84 289.546C109.138 244.685 110.086 191.811 110.086 191.811L133.071 192.192C133.071 192.192 134.991 220.499 138.973 278.169C141.798 319.019 170.57 281.134 208.362 305.89C227.439 318.387 226.588 348.619 226.588 348.619C226.588 348.619 243.047 349.443 243.047 368.477Z" fill="white"/>
<path fill-rule="evenodd" clip-rule="evenodd" d="M83.8384 368.477H24.3462C26.9341 355.713 37.983 346.403 50.9972 345.127C53.4929 344.89 56.0577 344.939 58.6514 345.315C60.1441 345.536 61.5966 345.85 63.0029 346.265C66.8588 347.398 70.3515 349.232 73.3371 351.597C78.7261 355.847 82.484 361.814 83.8384 368.477Z" fill="#434343"/>
<path fill-rule="evenodd" clip-rule="evenodd" d="M216.062 368.477H183.866C185.186 362.604 189.388 357.846 194.915 356.039C196.218 355.614 197.595 355.349 199.03 355.277C199.855 355.233 200.673 355.255 201.468 355.338C208.483 356.051 214.344 361.366 216.062 368.477Z" fill="#434343"/>
<path fill-rule="evenodd" clip-rule="evenodd" d="M163.717 368.477H71.7175C71.3371 364.842 71.4235 361.106 72.0229 357.332C72.3342 355.371 72.778 353.454 73.3371 351.597C79.7001 330.567 101.492 316.797 124.685 320.179C130.167 320.98 135.273 322.672 139.872 325.08C155.82 333.413 165.659 350.343 163.717 368.477Z" fill="#434343"/>
<path fill-rule="evenodd" clip-rule="evenodd" d="M90.6691 284.843C89.9147 289.596 85.2836 292.863 80.3257 292.14C75.3672 291.416 71.9598 286.977 72.7142 282.224C73.4687 277.47 78.0992 274.203 83.0577 274.927C88.0155 275.65 91.4236 280.089 90.6691 284.843Z" fill="#434343"/>
<path fill-rule="evenodd" clip-rule="evenodd" d="M156.6 286.493C156.289 288.455 154.378 289.803 152.331 289.505C150.285 289.206 148.878 287.374 149.19 285.412C149.501 283.45 151.413 282.102 153.459 282.401C155.505 282.699 156.911 284.531 156.6 286.493Z" fill="#434343"/>
<path fill-rule="evenodd" clip-rule="evenodd" d="M264.408 346.229C263.69 350.756 259.279 353.867 254.557 353.179C249.835 352.49 246.589 348.261 247.308 343.734C248.027 339.207 252.437 336.096 257.159 336.785C261.882 337.473 265.127 341.702 264.408 346.229Z" fill="#434343"/>
<path fill-rule="evenodd" clip-rule="evenodd" d="M95.019 174.79H149.936C153.119 174.79 155.7 172.316 155.7 169.265C155.7 166.213 153.119 163.739 149.936 163.739H95.019C91.8358 163.739 89.2554 166.213 89.2554 169.265C89.2554 172.316 91.8358 174.79 95.019 174.79ZM107.226 198.085H137.729L149.256 174.79H95.699L107.226 198.085Z" fill="white"/>
<path opacity="0.402158" fill-rule="evenodd" clip-rule="evenodd" d="M137.632 198.084H107.129L95.6018 174.79H149.159L137.632 198.084Z" fill="#484848"/>
<path d="M74.0852 236.696C78.5582 239.071 81.8464 243.515 82.5081 248.828C82.5813 249.415 82.6217 249.998 82.6315 250.574C82.6747 253.187 79.3802 254.332 77.7866 252.261C75.9681 249.897 73.5595 248.534 71.0408 248.757C66.208 249.185 62.8017 255.296 63.4311 262.408C63.4322 262.423 63.4334 262.438 63.4351 262.453C63.6276 264.573 61.464 266.105 59.5568 265.16C54.7257 262.77 51.2191 257.993 50.709 252.23C50.0986 245.336 53.9609 239.078 59.898 236.319V123.877C54.8742 121.175 51.4593 115.87 51.4593 109.768C51.4593 103.132 55.4976 97.4384 61.2517 95.0104C63.3356 90.9311 67.5847 88.1213 72.4583 88.1213H172.086C176.525 88.1213 180.447 90.4525 182.685 93.9511C190.016 92.7948 197.403 96.8804 200.14 104.092C203.094 111.874 199.581 120.523 192.26 124.128V237.591C197.554 240.695 200.805 246.718 200.063 253.204C199.405 258.952 195.777 263.637 190.887 265.904C188.955 266.799 186.832 265.212 187.079 263.099C187.081 263.083 187.082 263.068 187.084 263.054C187.896 255.96 184.647 249.763 179.827 249.212C177.315 248.925 174.872 250.226 172.993 252.542C171.347 254.572 168.083 253.343 168.193 250.732C168.217 250.156 168.273 249.574 168.361 248.99C169.215 243.319 173.055 238.723 178.073 236.628V132.337C176.29 133.309 174.249 133.863 172.086 133.863H74.0852V236.696Z" fill="white"/>
<path fill-rule="evenodd" clip-rule="evenodd" d="M123.921 121.533C120.117 121.533 117.005 118.421 117.005 114.618V105.717C117.005 101.914 120.117 98.8029 123.921 98.8029H162.181C165.985 98.8029 169.097 101.914 169.097 105.717V114.618C169.097 118.421 165.985 121.533 162.181 121.533H123.921ZM122.518 110.168C122.518 114.523 126.049 118.053 130.406 118.053C134.761 118.053 138.293 114.523 138.293 110.168C138.293 105.813 134.761 102.283 130.406 102.283C126.049 102.283 122.518 105.813 122.518 110.168ZM144.164 110.168C144.164 114.523 147.695 118.053 152.051 118.053C156.407 118.053 159.938 114.523 159.938 110.168C159.938 105.813 156.407 102.283 152.051 102.283C147.695 102.283 144.164 105.813 144.164 110.168Z" fill="#3E3D3D"/>
<path opacity="0.401228" fill-rule="evenodd" clip-rule="evenodd" d="M178.073 236.388V132.373C179.76 130.791 180.888 129.645 181.457 128.934C182.33 127.842 183.081 126.786 183.534 126.23C183.653 126.083 183.791 125.839 183.818 125.787C183.845 125.736 183.839 125.732 183.888 125.736C184.392 125.775 184.742 125.787 185.166 125.787C186.15 125.787 187.346 125.677 188.683 125.395C189.125 125.302 189.744 125.123 190.504 124.869C190.861 124.749 191.446 124.504 192.26 124.131V236.388H178.073ZM182.685 93.9511C190.016 92.7948 197.403 96.8804 200.14 104.092C203.278 112.359 199.118 121.604 190.848 124.741C188.538 125.618 186.152 125.925 183.844 125.732C184.37 124.351 184.658 122.854 184.658 121.294V100.691C184.658 98.2156 183.933 95.9019 182.685 93.9511ZM63.6244 125.313C63.739 125.339 63.8564 125.363 63.9767 125.385C64.4236 125.468 64.9425 125.577 65.5317 125.662C66.1686 125.739 66.817 125.779 67.4747 125.779C76.3202 125.779 83.4901 118.61 83.4901 109.768C83.4901 100.925 76.3202 93.7569 67.4747 93.7569C65.2676 93.7569 63.1648 94.2032 61.2517 95.0104C63.3355 90.9311 67.5847 88.1213 72.4583 88.1213H88.2339C95.1486 88.1213 100.806 93.7773 100.806 100.691V121.294C100.806 128.207 95.1486 133.863 88.2339 133.863H74.0851V236.388H59.8979V123.884C59.9969 123.935 60.0938 123.985 60.1889 124.034L60.1879 124.029C61.2681 124.582 62.4194 125.016 63.6244 125.313Z" fill="#484848"/>
<path d="M192.26 220.813H194.76V218.313H192.26V220.813ZM178.072 220.813V218.313H175.572V220.813H178.072ZM192.26 225.813V228.313H194.76V225.813H192.26ZM178.072 225.813H175.572V228.313H178.072V225.813ZM192.26 208.713H194.76V206.213H192.26V208.713ZM178.072 208.713V206.213H175.572V208.713H178.072ZM192.26 213.713V216.213H194.76V213.713H192.26ZM178.072 213.713H175.572V216.213H178.072V213.713ZM192.26 196.613H194.76V194.113H192.26V196.613ZM178.072 196.613V194.113H175.572V196.613H178.072ZM192.26 201.613V204.113H194.76V201.613H192.26ZM178.072 201.613H175.572V204.113H178.072V201.613ZM192.26 184.513H194.76V182.013H192.26V184.513ZM178.072 184.513V182.013H175.572V184.513H178.072ZM192.26 189.513V192.013H194.76V189.513H192.26ZM178.072 189.513H175.572V192.013H178.072V189.513ZM192.26 172.412H194.76V169.912H192.26V172.412ZM178.072 172.412V169.912H175.572V172.412H178.072ZM192.26 177.412V179.912H194.76V177.412H192.26ZM178.072 177.412H175.572V179.912H178.072V177.412ZM192.26 160.312H194.76V157.812H192.26V160.312ZM178.072 160.312V157.812H175.572V160.312H178.072ZM192.26 165.312V167.812H194.76V165.312H192.26ZM178.072 165.312H175.572V167.812H178.072V165.312ZM192.26 148.212H194.76V145.712H192.26V148.212ZM178.072 148.212V145.712H175.572V148.212H178.072ZM192.26 153.212V155.712H194.76V153.212H192.26ZM178.072 153.212H175.572V155.712H178.072V153.212ZM192.26 136.112H194.76V133.612H192.26V136.112ZM178.072 136.112V133.612H175.572V136.112H178.072ZM192.26 141.112V143.612H194.76V141.112H192.26ZM178.072 141.112H175.572V143.612H178.072V141.112ZM74.0849 220.813H76.5849V218.313H74.0849V220.813ZM59.8977 220.813V218.313H57.3977V220.813H59.8977ZM74.0849 225.813V228.313H76.5849V225.813H74.0849ZM59.8977 225.813H57.3977V228.313H59.8977V225.813ZM74.0849 208.713H76.5849V206.213H74.0849V208.713ZM59.8977 208.713V206.213H57.3977V208.713H59.8977ZM74.0849 213.713V216.213H76.5849V213.713H74.0849ZM59.8977 213.713H57.3977V216.213H59.8977V213.713ZM74.0849 196.613H76.5849V194.113H74.0849V196.613ZM59.8977 196.613V194.113H57.3977V196.613H59.8977ZM74.0849 201.613V204.113H76.5849V201.613H74.0849ZM59.8977 201.613H57.3977V204.113H59.8977V201.613ZM74.0849 184.513H76.5849V182.013H74.0849V184.513ZM59.8977 184.513V182.013H57.3977V184.513H59.8977ZM74.0849 189.513V192.013H76.5849V189.513H74.0849ZM59.8977 189.513H57.3977V192.013H59.8977V189.513ZM74.0849 172.412H76.5849V169.912H74.0849V172.412ZM59.8977 172.412V169.912H57.3977V172.412H59.8977ZM74.0849 177.412V179.912H76.5849V177.412H74.0849ZM59.8977 177.412H57.3977V179.912H59.8977V177.412ZM74.0849 160.312H76.5849V157.812H74.0849V160.312ZM59.8977 160.312V157.812H57.3977V160.312H59.8977ZM74.0849 165.312V167.812H76.5849V165.312H74.0849ZM59.8977 165.312H57.3977V167.812H59.8977V165.312ZM74.0849 148.212H76.5849V145.712H74.0849V148.212ZM59.8977 148.212V145.712H57.3977V148.212H59.8977ZM74.0849 153.212V155.712H76.5849V153.212H74.0849ZM59.8977 153.212H57.3977V155.712H59.8977V153.212ZM74.0849 136.112H76.5849V133.612H74.0849V136.112ZM59.8977 136.112V133.612H57.3977V136.112H59.8977ZM74.0849 141.112V143.612H76.5849V141.112H74.0849ZM59.8977 141.112H57.3977V143.612H59.8977V141.112ZM192.26 218.313H178.072V223.313H192.26V218.313ZM194.76 225.813V220.813H189.76V225.813H194.76ZM178.072 228.313H192.26V223.313H178.072V228.313ZM175.572 220.813V225.813H180.572V220.813H175.572ZM192.26 206.213H178.072V211.213H192.26V206.213ZM194.76 213.713V208.713H189.76V213.713H194.76ZM178.072 216.213H192.26V211.213H178.072V216.213ZM175.572 208.713V213.713H180.572V208.713H175.572ZM192.26 194.113H178.072V199.113H192.26V194.113ZM194.76 201.613V196.613H189.76V201.613H194.76ZM178.072 204.113H192.26V199.113H178.072V204.113ZM175.572 196.613V201.613H180.572V196.613H175.572ZM192.26 182.013H178.072V187.013H192.26V182.013ZM194.76 189.513V184.513H189.76V189.513H194.76ZM178.072 192.013H192.26V187.013H178.072V192.013ZM175.572 184.513V189.513H180.572V184.513H175.572ZM192.26 169.912H178.072V174.912H192.26V169.912ZM194.76 177.412V172.412H189.76V177.412H194.76ZM178.072 179.912H192.26V174.912H178.072V179.912ZM175.572 172.412V177.412H180.572V172.412H175.572ZM192.26 157.812H178.072V162.812H192.26V157.812ZM194.76 165.312V160.312H189.76V165.312H194.76ZM178.072 167.812H192.26V162.812H178.072V167.812ZM175.572 160.312V165.312H180.572V160.312H175.572ZM192.26 145.712H178.072V150.712H192.26V145.712ZM194.76 153.212V148.212H189.76V153.212H194.76ZM178.072 155.712H192.26V150.712H178.072V155.712ZM175.572 148.212V153.212H180.572V148.212H175.572ZM192.26 133.612H178.072V138.612H192.26V133.612ZM194.76 141.112V136.112H189.76V141.112H194.76ZM178.072 143.612H192.26V138.612H178.072V143.612ZM175.572 136.112V141.112H180.572V136.112H175.572ZM74.0849 218.313H59.8977V223.313H74.0849V218.313ZM76.5849 225.813V220.813H71.5849V225.813H76.5849ZM59.8977 228.313H74.0849V223.313H59.8977V228.313ZM57.3977 220.813V225.813H62.3977V220.813H57.3977ZM74.0849 206.213H59.8977V211.213H74.0849V206.213ZM76.5849 213.713V208.713H71.5849V213.713H76.5849ZM59.8977 216.213H74.0849V211.213H59.8977V216.213ZM57.3977 208.713V213.713H62.3977V208.713H57.3977ZM74.0849 194.113H59.8977V199.113H74.0849V194.113ZM76.5849 201.613V196.613H71.5849V201.613H76.5849ZM59.8977 204.113H74.0849V199.113H59.8977V204.113ZM57.3977 196.613V201.613H62.3977V196.613H57.3977ZM74.0849 182.013H59.8977V187.013H74.0849V182.013ZM76.5849 189.513V184.513H71.5849V189.513H76.5849ZM59.8977 192.013H74.0849V187.013H59.8977V192.013ZM57.3977 184.513V189.513H62.3977V184.513H57.3977ZM74.0849 169.912H59.8977V174.912H74.0849V169.912ZM76.5849 177.412V172.412H71.5849V177.412H76.5849ZM59.8977 179.912H74.0849V174.912H59.8977V179.912ZM57.3977 172.412V177.412H62.3977V172.412H57.3977ZM74.0849 157.812H59.8977V162.812H74.0849V157.812ZM76.5849 165.312V160.312H71.5849V165.312H76.5849ZM59.8977 167.812H74.0849V162.812H59.8977V167.812ZM57.3977 160.312V165.312H62.3977V160.312H57.3977ZM74.0849 145.712H59.8977V150.712H74.0849V145.712ZM76.5849 153.212V148.212H71.5849V153.212H76.5849ZM59.8977 155.712H74.0849V150.712H59.8977V155.712ZM57.3977 148.212V153.212H62.3977V148.212H57.3977ZM74.0849 133.612H59.8977V138.612H74.0849V133.612ZM76.5849 141.112V136.112H71.5849V141.112H76.5849ZM59.8977 143.612H74.0849V138.612H59.8977V143.612ZM57.3977 136.112V141.112H62.3977V136.112H57.3977Z" fill="#3E3D3D"/>
<path fill-rule="evenodd" clip-rule="evenodd" d="M111.74 163.7H131.78V131.912H111.74V163.7Z" fill="#3E3D3D"/>
</svg>
