<svg width="265" height="368" viewBox="0 0 265 368" fill="none" xmlns="http://www.w3.org/2000/svg">
<path fill-rule="evenodd" clip-rule="evenodd" d="M154.402 54.9163H162.097C165.157 54.9163 167.661 52.4133 167.661 49.3537C167.661 46.2946 165.157 43.791 162.097 43.791H154.402C151.342 43.791 148.838 46.2946 148.838 49.3537C148.838 52.4133 151.342 54.9163 154.402 54.9163Z" fill="#3E3D3D"/>
<path d="M124.315 65.43C125.477 62.2865 129.883 60.4308 134.157 61.2851C138.43 62.1394 140.953 65.3803 139.792 68.5237L133.932 84.382C132.771 87.5254 132.38 88.4264 127.106 88.4264C124.874 88.4264 121.469 88.4264 119.544 88.4264C116.789 88.4264 115.943 86.6467 118.455 81.2882L124.315 65.43Z" fill="#3E3D3D"/>
<path fill-rule="evenodd" clip-rule="evenodd" d="M152.011 0C148.705 0 146.026 2.67876 146.026 5.98326C146.026 9.28778 148.705 11.9671 152.011 11.9671C155.317 11.9671 157.997 9.28778 157.997 5.98326C157.997 2.67876 155.317 0 152.011 0ZM106.922 56.4232C106.922 69.6112 117.715 80.4017 130.907 80.4017H133.212C146.405 80.4017 157.198 69.6112 157.198 56.4232V43.4805C157.198 30.2925 146.405 19.502 133.212 19.502H130.907C117.715 19.502 106.922 30.2925 106.922 43.4805V56.4232Z" fill="white"/>
<path d="M149.606 11.4644C145.682 14.8806 143.448 18.6583 142.774 23.8038C142.65 24.7504 141.782 25.4173 140.835 25.2934C139.889 25.1694 139.221 24.3016 139.345 23.355C140.121 17.4293 142.665 13.0397 146.957 9.18994C147.591 10.1875 148.513 10.9845 149.606 11.4644Z" fill="#3E3D3D"/>
<path fill-rule="evenodd" clip-rule="evenodd" d="M139.912 45.1627C140.214 46.8718 139.074 48.5012 137.364 48.8032C135.655 49.1051 134.025 47.9648 133.723 46.2558C133.421 44.5474 134.561 42.9173 136.271 42.6154C137.98 42.3134 139.611 43.4537 139.912 45.1627Z" fill="#3E3D3D"/>
<path fill-rule="evenodd" clip-rule="evenodd" d="M156.229 45.2296C156.531 46.9386 155.39 48.5681 153.681 48.87C151.972 49.172 150.342 48.0317 150.04 46.3227C149.738 44.6142 150.878 42.9842 152.588 42.6822C154.297 42.3803 155.927 43.5212 156.229 45.2296Z" fill="#3E3D3D"/>
<path opacity="0.403971" fill-rule="evenodd" clip-rule="evenodd" d="M143.602 41.7695L151.533 54.3503L142.996 54.5566L143.602 41.7695Z" fill="#484848"/>
<path fill-rule="evenodd" clip-rule="evenodd" d="M103.564 53.7259H111.03V42.6006H103.564C100.504 42.6006 98 45.1042 98 48.1632C98 51.2228 100.504 53.7259 103.564 53.7259Z" fill="#3E3D3D"/>
<path d="M131.498 33.1562L141.498 33.1976" stroke="#3E3D3D" stroke-width="4"/>
<path d="M149.954 38.0703L159.944 37.6424" stroke="#3E3D3D" stroke-width="4"/>
<circle cx="138.498" cy="60.6562" r="2.5" fill="#3E3D3D"/>
<path fill-rule="evenodd" clip-rule="evenodd" d="M243.295 367.477H0.749146C1.8696 338.695 19.5449 326.398 46.5009 325.717C64.2944 277.49 103.281 326.694 106.088 288.546C109.385 243.685 110.333 190.811 110.333 190.811L133.319 191.192C133.319 191.192 135.238 219.499 139.221 277.169C142.045 318.019 170.817 280.134 208.609 304.89C227.686 317.387 226.835 347.619 226.835 347.619C226.835 347.619 243.295 348.443 243.295 367.477Z" fill="white"/>
<path fill-rule="evenodd" clip-rule="evenodd" d="M84.0856 367.477H24.5934C27.1813 354.713 38.2301 345.403 51.2444 344.127C53.7401 343.89 56.3049 343.939 58.8985 344.315C60.3913 344.536 61.8438 344.85 63.2501 345.265C67.106 346.398 70.5987 348.232 73.5843 350.597C78.9733 354.847 82.7312 360.814 84.0856 367.477Z" fill="#434343"/>
<path fill-rule="evenodd" clip-rule="evenodd" d="M216.309 367.477H184.113C185.433 361.604 189.635 356.846 195.162 355.039C196.465 354.614 197.842 354.349 199.277 354.277C200.102 354.233 200.92 354.255 201.715 354.338C208.73 355.051 214.591 360.366 216.309 367.477Z" fill="#434343"/>
<path fill-rule="evenodd" clip-rule="evenodd" d="M163.964 367.477H71.9645C71.5841 363.842 71.6706 360.106 72.27 356.332C72.5813 354.371 73.0251 352.454 73.5841 350.597C79.9472 329.567 101.739 315.797 124.932 319.179C130.414 319.98 135.52 321.672 140.12 324.08C156.068 332.413 165.906 349.343 163.964 367.477Z" fill="#434343"/>
<path fill-rule="evenodd" clip-rule="evenodd" d="M90.9164 283.843C90.162 288.596 85.5309 291.863 80.573 291.14C75.6145 290.416 72.2071 285.977 72.9615 281.224C73.716 276.47 78.3465 273.203 83.305 273.927C88.2629 274.65 91.6709 279.089 90.9164 283.843Z" fill="#434343"/>
<path fill-rule="evenodd" clip-rule="evenodd" d="M156.847 285.493C156.536 287.455 154.625 288.803 152.579 288.505C150.532 288.206 149.126 286.374 149.438 284.412C149.749 282.45 151.66 281.102 153.706 281.401C155.752 281.699 157.159 283.531 156.847 285.493Z" fill="#434343"/>
<path fill-rule="evenodd" clip-rule="evenodd" d="M264.655 345.229C263.937 349.756 259.526 352.867 254.804 352.179C250.082 351.49 246.837 347.261 247.555 342.734C248.274 338.207 252.684 335.096 257.407 335.785C262.129 336.473 265.374 340.702 264.655 345.229Z" fill="#434343"/>
<path fill-rule="evenodd" clip-rule="evenodd" d="M95.2663 173.79H150.183C153.367 173.79 155.947 171.316 155.947 168.265C155.947 165.213 153.367 162.739 150.183 162.739H95.2663C92.0831 162.739 89.5027 165.213 89.5027 168.265C89.5027 171.316 92.0831 173.79 95.2663 173.79ZM107.474 197.085H137.976L149.504 173.79H95.9463L107.474 197.085Z" fill="white"/>
<path opacity="0.402158" fill-rule="evenodd" clip-rule="evenodd" d="M137.879 197.084H107.376L95.8491 173.79H149.407L137.879 197.084Z" fill="#484848"/>
<path d="M74.3323 235.696C78.8053 238.071 82.0936 242.515 82.7553 247.828C82.8285 248.415 82.8688 248.998 82.8786 249.574C82.9218 252.187 79.6274 253.332 78.0337 251.261C76.2153 248.897 73.8067 247.534 71.2879 247.757C66.4551 248.185 63.0488 254.296 63.6782 261.408C63.6794 261.423 63.6805 261.438 63.6823 261.453C63.8748 263.573 61.7111 265.105 59.8039 264.16C54.9728 261.77 51.4662 256.993 50.9561 251.23C50.3458 244.336 54.208 238.078 60.1451 235.319V122.877C55.1213 120.175 51.7064 114.87 51.7064 108.768C51.7064 102.132 55.7447 96.4384 61.4989 94.0104C63.5827 89.9311 67.8318 87.1213 72.7055 87.1213H172.333C176.772 87.1213 180.694 89.4525 182.932 92.9511C190.263 91.7948 197.65 95.8804 200.387 103.092C203.341 110.874 199.828 119.523 192.507 123.128V236.591C197.801 239.695 201.052 245.718 200.31 252.204C199.652 257.952 196.025 262.637 191.134 264.904C189.202 265.799 187.079 264.212 187.326 262.099C187.328 262.083 187.329 262.068 187.331 262.054C188.143 254.96 184.894 248.763 180.074 248.212C177.562 247.925 175.119 249.226 173.24 251.542C171.594 253.572 168.33 252.343 168.44 249.732C168.465 249.156 168.52 248.574 168.608 247.99C169.462 242.319 173.302 237.723 178.32 235.628V131.337C176.537 132.309 174.497 132.863 172.333 132.863H74.3323V235.696Z" fill="white"/>
<path fill-rule="evenodd" clip-rule="evenodd" d="M124.168 120.533C120.364 120.533 117.252 117.421 117.252 113.618V104.717C117.252 100.914 120.364 97.8029 124.168 97.8029H162.428C166.232 97.8029 169.344 100.914 169.344 104.717V113.618C169.344 117.421 166.232 120.533 162.428 120.533H124.168ZM122.765 109.168C122.765 113.523 126.297 117.053 130.653 117.053C135.008 117.053 138.54 113.523 138.54 109.168C138.54 104.813 135.008 101.283 130.653 101.283C126.297 101.283 122.765 104.813 122.765 109.168ZM144.411 109.168C144.411 113.523 147.942 117.053 152.299 117.053C156.654 117.053 160.185 113.523 160.185 109.168C160.185 104.813 156.654 101.283 152.299 101.283C147.942 101.283 144.411 104.813 144.411 109.168Z" fill="#3E3D3D"/>
<path opacity="0.401228" fill-rule="evenodd" clip-rule="evenodd" d="M178.32 235.388V131.373C180.007 129.791 181.136 128.645 181.704 127.934C182.577 126.842 183.329 125.786 183.781 125.23C183.9 125.083 184.038 124.839 184.065 124.787C184.092 124.736 184.086 124.732 184.135 124.736C184.639 124.775 184.989 124.787 185.413 124.787C186.397 124.787 187.593 124.677 188.93 124.395C189.372 124.302 189.992 124.123 190.751 123.869C191.108 123.749 191.693 123.504 192.507 123.131V235.388H178.32ZM182.932 92.9511C190.263 91.7948 197.65 95.8804 200.387 103.092C203.525 111.359 199.365 120.604 191.095 123.741C188.785 124.618 186.399 124.925 184.092 124.732C184.617 123.351 184.906 121.854 184.906 120.294V99.6905C184.906 97.2156 184.181 94.9019 182.932 92.9511ZM63.8715 124.313C63.9862 124.339 64.1036 124.363 64.2239 124.385C64.6707 124.468 65.1896 124.577 65.7788 124.662C66.4157 124.739 67.0641 124.779 67.7218 124.779C76.5673 124.779 83.7373 117.61 83.7373 108.768C83.7373 99.9254 76.5673 92.7569 67.7218 92.7569C65.5147 92.7569 63.4119 93.2032 61.4988 94.0104C63.5827 89.9311 67.8318 87.1213 72.7054 87.1213H88.4811C95.3957 87.1213 101.053 92.7773 101.053 99.6905V120.294C101.053 127.207 95.3957 132.863 88.4811 132.863H74.3323V235.388H60.1451V122.884C60.244 122.935 60.341 122.985 60.436 123.034L60.435 123.029C61.5152 123.582 62.6665 124.016 63.8715 124.313Z" fill="#484848"/>
<path d="M192.507 219.813H195.007V217.313H192.507V219.813ZM178.32 219.813V217.313H175.82V219.813H178.32ZM192.507 224.813V227.313H195.007V224.813H192.507ZM178.32 224.813H175.82V227.313H178.32V224.813ZM192.507 207.713H195.007V205.213H192.507V207.713ZM178.32 207.713V205.213H175.82V207.713H178.32ZM192.507 212.713V215.213H195.007V212.713H192.507ZM178.32 212.713H175.82V215.213H178.32V212.713ZM192.507 195.613H195.007V193.113H192.507V195.613ZM178.32 195.613V193.113H175.82V195.613H178.32ZM192.507 200.613V203.113H195.007V200.613H192.507ZM178.32 200.613H175.82V203.113H178.32V200.613ZM192.507 183.513H195.007V181.013H192.507V183.513ZM178.32 183.513V181.013H175.82V183.513H178.32ZM192.507 188.513V191.013H195.007V188.513H192.507ZM178.32 188.513H175.82V191.013H178.32V188.513ZM192.507 171.412H195.007V168.912H192.507V171.412ZM178.32 171.412V168.912H175.82V171.412H178.32ZM192.507 176.412V178.912H195.007V176.412H192.507ZM178.32 176.412H175.82V178.912H178.32V176.412ZM192.507 159.312H195.007V156.812H192.507V159.312ZM178.32 159.312V156.812H175.82V159.312H178.32ZM192.507 164.312V166.812H195.007V164.312H192.507ZM178.32 164.312H175.82V166.812H178.32V164.312ZM192.507 147.212H195.007V144.712H192.507V147.212ZM178.32 147.212V144.712H175.82V147.212H178.32ZM192.507 152.212V154.712H195.007V152.212H192.507ZM178.32 152.212H175.82V154.712H178.32V152.212ZM192.507 135.112H195.007V132.612H192.507V135.112ZM178.32 135.112V132.612H175.82V135.112H178.32ZM192.507 140.112V142.612H195.007V140.112H192.507ZM178.32 140.112H175.82V142.612H178.32V140.112ZM74.332 219.813H76.832V217.313H74.332V219.813ZM60.1448 219.813V217.313H57.6448V219.813H60.1448ZM74.332 224.813V227.313H76.832V224.813H74.332ZM60.1448 224.813H57.6448V227.313H60.1448V224.813ZM74.332 207.713H76.832V205.213H74.332V207.713ZM60.1448 207.713V205.213H57.6448V207.713H60.1448ZM74.332 212.713V215.213H76.832V212.713H74.332ZM60.1448 212.713H57.6448V215.213H60.1448V212.713ZM74.332 195.613H76.832V193.113H74.332V195.613ZM60.1448 195.613V193.113H57.6448V195.613H60.1448ZM74.332 200.613V203.113H76.832V200.613H74.332ZM60.1448 200.613H57.6448V203.113H60.1448V200.613ZM74.332 183.513H76.832V181.013H74.332V183.513ZM60.1448 183.513V181.013H57.6448V183.513H60.1448ZM74.332 188.513V191.013H76.832V188.513H74.332ZM60.1448 188.513H57.6448V191.013H60.1448V188.513ZM74.332 171.412H76.832V168.912H74.332V171.412ZM60.1448 171.412V168.912H57.6448V171.412H60.1448ZM74.332 176.412V178.912H76.832V176.412H74.332ZM60.1448 176.412H57.6448V178.912H60.1448V176.412ZM74.332 159.312H76.832V156.812H74.332V159.312ZM60.1448 159.312V156.812H57.6448V159.312H60.1448ZM74.332 164.312V166.812H76.832V164.312H74.332ZM60.1448 164.312H57.6448V166.812H60.1448V164.312ZM74.332 147.212H76.832V144.712H74.332V147.212ZM60.1448 147.212V144.712H57.6448V147.212H60.1448ZM74.332 152.212V154.712H76.832V152.212H74.332ZM60.1448 152.212H57.6448V154.712H60.1448V152.212ZM74.332 135.112H76.832V132.612H74.332V135.112ZM60.1448 135.112V132.612H57.6448V135.112H60.1448ZM74.332 140.112V142.612H76.832V140.112H74.332ZM60.1448 140.112H57.6448V142.612H60.1448V140.112ZM192.507 217.313H178.32V222.313H192.507V217.313ZM195.007 224.813V219.813H190.007V224.813H195.007ZM178.32 227.313H192.507V222.313H178.32V227.313ZM175.82 219.813V224.813H180.82V219.813H175.82ZM192.507 205.213H178.32V210.213H192.507V205.213ZM195.007 212.713V207.713H190.007V212.713H195.007ZM178.32 215.213H192.507V210.213H178.32V215.213ZM175.82 207.713V212.713H180.82V207.713H175.82ZM192.507 193.113H178.32V198.113H192.507V193.113ZM195.007 200.613V195.613H190.007V200.613H195.007ZM178.32 203.113H192.507V198.113H178.32V203.113ZM175.82 195.613V200.613H180.82V195.613H175.82ZM192.507 181.013H178.32V186.013H192.507V181.013ZM195.007 188.513V183.513H190.007V188.513H195.007ZM178.32 191.013H192.507V186.013H178.32V191.013ZM175.82 183.513V188.513H180.82V183.513H175.82ZM192.507 168.912H178.32V173.912H192.507V168.912ZM195.007 176.412V171.412H190.007V176.412H195.007ZM178.32 178.912H192.507V173.912H178.32V178.912ZM175.82 171.412V176.412H180.82V171.412H175.82ZM192.507 156.812H178.32V161.812H192.507V156.812ZM195.007 164.312V159.312H190.007V164.312H195.007ZM178.32 166.812H192.507V161.812H178.32V166.812ZM175.82 159.312V164.312H180.82V159.312H175.82ZM192.507 144.712H178.32V149.712H192.507V144.712ZM195.007 152.212V147.212H190.007V152.212H195.007ZM178.32 154.712H192.507V149.712H178.32V154.712ZM175.82 147.212V152.212H180.82V147.212H175.82ZM192.507 132.612H178.32V137.612H192.507V132.612ZM195.007 140.112V135.112H190.007V140.112H195.007ZM178.32 142.612H192.507V137.612H178.32V142.612ZM175.82 135.112V140.112H180.82V135.112H175.82ZM74.332 217.313H60.1448V222.313H74.332V217.313ZM76.832 224.813V219.813H71.832V224.813H76.832ZM60.1448 227.313H74.332V222.313H60.1448V227.313ZM57.6448 219.813V224.813H62.6448V219.813H57.6448ZM74.332 205.213H60.1448V210.213H74.332V205.213ZM76.832 212.713V207.713H71.832V212.713H76.832ZM60.1448 215.213H74.332V210.213H60.1448V215.213ZM57.6448 207.713V212.713H62.6448V207.713H57.6448ZM74.332 193.113H60.1448V198.113H74.332V193.113ZM76.832 200.613V195.613H71.832V200.613H76.832ZM60.1448 203.113H74.332V198.113H60.1448V203.113ZM57.6448 195.613V200.613H62.6448V195.613H57.6448ZM74.332 181.013H60.1448V186.013H74.332V181.013ZM76.832 188.513V183.513H71.832V188.513H76.832ZM60.1448 191.013H74.332V186.013H60.1448V191.013ZM57.6448 183.513V188.513H62.6448V183.513H57.6448ZM74.332 168.912H60.1448V173.912H74.332V168.912ZM76.832 176.412V171.412H71.832V176.412H76.832ZM60.1448 178.912H74.332V173.912H60.1448V178.912ZM57.6448 171.412V176.412H62.6448V171.412H57.6448ZM74.332 156.812H60.1448V161.812H74.332V156.812ZM76.832 164.312V159.312H71.832V164.312H76.832ZM60.1448 166.812H74.332V161.812H60.1448V166.812ZM57.6448 159.312V164.312H62.6448V159.312H57.6448ZM74.332 144.712H60.1448V149.712H74.332V144.712ZM76.832 152.212V147.212H71.832V152.212H76.832ZM60.1448 154.712H74.332V149.712H60.1448V154.712ZM57.6448 147.212V152.212H62.6448V147.212H57.6448ZM74.332 132.612H60.1448V137.612H74.332V132.612ZM76.832 140.112V135.112H71.832V140.112H76.832ZM60.1448 142.612H74.332V137.612H60.1448V142.612ZM57.6448 135.112V140.112H62.6448V135.112H57.6448Z" fill="#3E3D3D"/>
<path fill-rule="evenodd" clip-rule="evenodd" d="M111.987 162.7H132.027V130.912H111.987V162.7Z" fill="#3E3D3D"/>
</svg>
