<svg width="265" height="367" viewBox="0 0 265 367" fill="none" xmlns="http://www.w3.org/2000/svg">
<path fill-rule="evenodd" clip-rule="evenodd" d="M152.403 54.9163H160.098C163.158 54.9163 165.661 52.4133 165.661 49.3537C165.661 46.2946 163.158 43.791 160.098 43.791H152.403C149.342 43.791 146.838 46.2946 146.838 49.3537C146.838 52.4133 149.342 54.9163 152.403 54.9163Z" fill="#3E3D3D"/>
<path d="M122.315 65.43C123.477 62.2865 127.883 60.4308 132.157 61.2851C136.43 62.1394 138.953 65.3803 137.792 68.5237L131.932 84.382C130.771 87.5254 130.38 88.4264 125.106 88.4264C122.874 88.4264 119.469 88.4264 117.544 88.4264C114.789 88.4264 113.943 86.6467 116.455 81.2882L122.315 65.43Z" fill="#3E3D3D"/>
<path fill-rule="evenodd" clip-rule="evenodd" d="M150.011 0C146.705 0 144.025 2.67876 144.025 5.98326C144.025 9.28778 146.705 11.9671 150.011 11.9671C153.316 11.9671 155.996 9.28778 155.996 5.98326C155.996 2.67876 153.316 0 150.011 0ZM104.921 56.4232C104.921 69.6112 115.715 80.4017 128.907 80.4017H131.212C144.405 80.4017 155.198 69.6112 155.198 56.4232V43.4805C155.198 30.2925 144.405 19.502 131.212 19.502H128.907C115.715 19.502 104.921 30.2925 104.921 43.4805V56.4232Z" fill="white"/>
<path d="M147.606 11.4644C143.682 14.8806 141.448 18.6583 140.774 23.8038C140.65 24.7504 139.782 25.4173 138.835 25.2934C137.889 25.1694 137.221 24.3016 137.345 23.355C138.121 17.4293 140.665 13.0397 144.957 9.18994C145.591 10.1875 146.513 10.9845 147.606 11.4644Z" fill="#3E3D3D"/>
<path fill-rule="evenodd" clip-rule="evenodd" d="M137.912 45.1627C138.214 46.8718 137.074 48.5012 135.364 48.8032C133.655 49.1051 132.025 47.9648 131.723 46.2558C131.421 44.5474 132.561 42.9173 134.271 42.6154C135.98 42.3134 137.611 43.4537 137.912 45.1627Z" fill="#3E3D3D"/>
<path fill-rule="evenodd" clip-rule="evenodd" d="M154.229 45.2296C154.531 46.9386 153.39 48.5681 151.681 48.87C149.972 49.172 148.342 48.0317 148.04 46.3227C147.738 44.6142 148.878 42.9842 150.588 42.6822C152.297 42.3803 153.927 43.5212 154.229 45.2296Z" fill="#3E3D3D"/>
<path opacity="0.403971" fill-rule="evenodd" clip-rule="evenodd" d="M141.602 41.7695L149.533 54.3503L140.996 54.5566L141.602 41.7695Z" fill="#484848"/>
<path fill-rule="evenodd" clip-rule="evenodd" d="M101.564 53.7259H109.03V42.6006H101.564C98.5037 42.6006 96 45.1042 96 48.1632C96 51.2228 98.5037 53.7259 101.564 53.7259Z" fill="#3E3D3D"/>
<path d="M134.998 64.1562H144.998" stroke="#3E3D3D" stroke-width="4"/>
<path d="M155 37.9385H145" stroke="#3E3D3D" stroke-width="4"/>
<path d="M131 38.1563L140.5 38.1563" stroke="#3E3D3D" stroke-width="4"/>
<path fill-rule="evenodd" clip-rule="evenodd" d="M242.796 366.477H0.250977C1.37143 337.695 19.0468 325.398 46.0027 324.717C63.7962 276.49 102.783 325.694 105.59 287.546C108.887 242.685 109.835 189.811 109.835 189.811L132.82 190.192C132.82 190.192 134.74 218.499 138.722 276.169C141.547 317.019 170.319 279.134 208.111 303.89C227.188 316.387 226.337 346.619 226.337 346.619C226.337 346.619 242.796 347.443 242.796 366.477Z" fill="white"/>
<path fill-rule="evenodd" clip-rule="evenodd" d="M83.5875 366.477H24.0952C26.6831 353.713 37.732 344.403 50.7463 343.127C53.2419 342.89 55.8067 342.939 58.4004 343.315C59.8932 343.536 61.3456 343.85 62.7519 344.265C66.6078 345.398 70.1006 347.232 73.0861 349.597C78.4751 353.847 82.233 359.814 83.5875 366.477Z" fill="#434343"/>
<path fill-rule="evenodd" clip-rule="evenodd" d="M215.811 366.477H183.615C184.935 360.604 189.137 355.846 194.664 354.039C195.967 353.614 197.344 353.349 198.779 353.277C199.604 353.233 200.422 353.255 201.217 353.338C208.232 354.051 214.093 359.366 215.811 366.477Z" fill="#434343"/>
<path fill-rule="evenodd" clip-rule="evenodd" d="M163.466 366.477H71.4664C71.086 362.842 71.1724 359.106 71.7719 355.332C72.0831 353.371 72.5269 351.454 73.086 349.597C79.449 328.567 101.241 314.797 124.434 318.179C129.915 318.98 135.022 320.672 139.621 323.08C155.569 331.413 165.408 348.343 163.466 366.477Z" fill="#434343"/>
<path fill-rule="evenodd" clip-rule="evenodd" d="M90.4183 282.843C89.6638 287.596 85.0327 290.863 80.0748 290.14C75.1164 289.416 71.7089 284.977 72.4634 280.224C73.2178 275.47 77.8483 272.203 82.8068 272.927C87.7647 273.65 91.1727 278.089 90.4183 282.843Z" fill="#434343"/>
<path fill-rule="evenodd" clip-rule="evenodd" d="M156.349 284.493C156.038 286.455 154.127 287.803 152.081 287.505C150.034 287.206 148.628 285.374 148.939 283.412C149.251 281.45 151.162 280.102 153.208 280.401C155.254 280.699 156.66 282.531 156.349 284.493Z" fill="#434343"/>
<path fill-rule="evenodd" clip-rule="evenodd" d="M264.157 344.229C263.439 348.756 259.028 351.867 254.306 351.179C249.584 350.49 246.338 346.261 247.057 341.734C247.776 337.207 252.186 334.096 256.908 334.785C261.631 335.473 264.876 339.702 264.157 344.229Z" fill="#434343"/>
<path fill-rule="evenodd" clip-rule="evenodd" d="M94.7682 172.79H149.685C152.869 172.79 155.449 170.316 155.449 167.265C155.449 164.213 152.869 161.739 149.685 161.739H94.7682C91.5849 161.739 89.0045 164.213 89.0045 167.265C89.0045 170.316 91.5849 172.79 94.7682 172.79ZM106.975 196.085H137.478L149.006 172.79H95.4482L106.975 196.085Z" fill="white"/>
<path opacity="0.402158" fill-rule="evenodd" clip-rule="evenodd" d="M137.381 196.084H106.878L95.351 172.79H148.908L137.381 196.084Z" fill="#484848"/>
<path d="M73.8342 234.696C78.3072 237.071 81.5955 241.515 82.2572 246.828C82.3304 247.415 82.3707 247.998 82.3805 248.574C82.4237 251.187 79.1292 252.332 77.5356 250.261C75.7172 247.897 73.3085 246.534 70.7898 246.757C65.957 247.185 62.5507 253.296 63.1801 260.408C63.1813 260.423 63.1824 260.438 63.1841 260.453C63.3766 262.573 61.213 264.105 59.3058 263.16C54.4747 260.77 50.9681 255.993 50.458 250.23C49.8477 243.336 53.7099 237.078 59.647 234.319V121.877C54.6232 119.175 51.2083 113.87 51.2083 107.768C51.2083 101.132 55.2466 95.4384 61.0007 93.0104C63.0846 88.9311 67.3337 86.1213 72.2073 86.1213H171.835C176.274 86.1213 180.196 88.4525 182.434 91.9511C189.765 90.7948 197.152 94.8804 199.889 102.092C202.843 109.874 199.33 118.523 192.009 122.128V235.591C197.303 238.695 200.554 244.718 199.812 251.204C199.154 256.952 195.526 261.637 190.636 263.904C188.704 264.799 186.581 263.212 186.828 261.099C186.83 261.083 186.831 261.068 186.833 261.054C187.645 253.96 184.396 247.763 179.576 247.212C177.064 246.925 174.621 248.226 172.742 250.542C171.096 252.572 167.832 251.343 167.942 248.732C167.966 248.156 168.022 247.574 168.11 246.99C168.964 241.319 172.804 236.723 177.822 234.628V130.337C176.039 131.309 173.998 131.863 171.835 131.863H73.8342V234.696Z" fill="white"/>
<path fill-rule="evenodd" clip-rule="evenodd" d="M123.67 119.533C119.866 119.533 116.754 116.421 116.754 112.618V103.717C116.754 99.9143 119.866 96.8029 123.67 96.8029H161.93C165.734 96.8029 168.846 99.9143 168.846 103.717V112.618C168.846 116.421 165.734 119.533 161.93 119.533H123.67ZM122.267 108.168C122.267 112.523 125.798 116.053 130.155 116.053C134.51 116.053 138.042 112.523 138.042 108.168C138.042 103.813 134.51 100.283 130.155 100.283C125.798 100.283 122.267 103.813 122.267 108.168ZM143.913 108.168C143.913 112.523 147.444 116.053 151.8 116.053C156.156 116.053 159.687 112.523 159.687 108.168C159.687 103.813 156.156 100.283 151.8 100.283C147.444 100.283 143.913 103.813 143.913 108.168Z" fill="#3E3D3D"/>
<path opacity="0.401228" fill-rule="evenodd" clip-rule="evenodd" d="M177.822 234.388V130.373C179.509 128.791 180.637 127.645 181.206 126.934C182.079 125.842 182.83 124.786 183.283 124.23C183.402 124.083 183.54 123.839 183.567 123.787C183.594 123.736 183.588 123.732 183.637 123.736C184.141 123.775 184.491 123.787 184.915 123.787C185.899 123.787 187.095 123.677 188.432 123.395C188.874 123.302 189.493 123.123 190.253 122.869C190.61 122.749 191.195 122.504 192.009 122.131V234.388H177.822ZM182.434 91.9511C189.765 90.7948 197.152 94.8804 199.889 102.092C203.027 110.359 198.867 119.604 190.597 122.741C188.287 123.618 185.901 123.925 183.593 123.732C184.119 122.351 184.407 120.854 184.407 119.294V98.6905C184.407 96.2156 183.682 93.9019 182.434 91.9511ZM63.3734 123.313C63.4881 123.339 63.6055 123.363 63.7258 123.385C64.1726 123.468 64.6915 123.577 65.2807 123.662C65.9176 123.739 66.566 123.779 67.2237 123.779C76.0692 123.779 83.2391 116.61 83.2391 107.768C83.2391 98.9254 76.0692 91.7569 67.2237 91.7569C65.0166 91.7569 62.9138 92.2032 61.0007 93.0104C63.0846 88.9311 67.3337 86.1213 72.2073 86.1213H87.983C94.8976 86.1213 100.555 91.7773 100.555 98.6905V119.294C100.555 126.207 94.8976 131.863 87.983 131.863H73.8342V234.388H59.647V121.884C59.7459 121.935 59.8429 121.985 59.9379 122.034L59.9369 122.029C61.0171 122.582 62.1684 123.016 63.3734 123.313Z" fill="#484848"/>
<path d="M192.009 218.813H194.509V216.313H192.009V218.813ZM177.822 218.813V216.313H175.322V218.813H177.822ZM192.009 223.813V226.313H194.509V223.813H192.009ZM177.822 223.813H175.322V226.313H177.822V223.813ZM192.009 206.713H194.509V204.213H192.009V206.713ZM177.822 206.713V204.213H175.322V206.713H177.822ZM192.009 211.713V214.213H194.509V211.713H192.009ZM177.822 211.713H175.322V214.213H177.822V211.713ZM192.009 194.613H194.509V192.113H192.009V194.613ZM177.822 194.613V192.113H175.322V194.613H177.822ZM192.009 199.613V202.113H194.509V199.613H192.009ZM177.822 199.613H175.322V202.113H177.822V199.613ZM192.009 182.513H194.509V180.013H192.009V182.513ZM177.822 182.513V180.013H175.322V182.513H177.822ZM192.009 187.513V190.013H194.509V187.513H192.009ZM177.822 187.513H175.322V190.013H177.822V187.513ZM192.009 170.412H194.509V167.912H192.009V170.412ZM177.822 170.412V167.912H175.322V170.412H177.822ZM192.009 175.412V177.912H194.509V175.412H192.009ZM177.822 175.412H175.322V177.912H177.822V175.412ZM192.009 158.312H194.509V155.812H192.009V158.312ZM177.822 158.312V155.812H175.322V158.312H177.822ZM192.009 163.312V165.812H194.509V163.312H192.009ZM177.822 163.312H175.322V165.812H177.822V163.312ZM192.009 146.212H194.509V143.712H192.009V146.212ZM177.822 146.212V143.712H175.322V146.212H177.822ZM192.009 151.212V153.712H194.509V151.212H192.009ZM177.822 151.212H175.322V153.712H177.822V151.212ZM192.009 134.112H194.509V131.612H192.009V134.112ZM177.822 134.112V131.612H175.322V134.112H177.822ZM192.009 139.112V141.612H194.509V139.112H192.009ZM177.822 139.112H175.322V141.612H177.822V139.112ZM73.8339 218.813H76.3339V216.313H73.8339V218.813ZM59.6467 218.813V216.313H57.1467V218.813H59.6467ZM73.8339 223.813V226.313H76.3339V223.813H73.8339ZM59.6467 223.813H57.1467V226.313H59.6467V223.813ZM73.8339 206.713H76.3339V204.213H73.8339V206.713ZM59.6467 206.713V204.213H57.1467V206.713H59.6467ZM73.8339 211.713V214.213H76.3339V211.713H73.8339ZM59.6467 211.713H57.1467V214.213H59.6467V211.713ZM73.8339 194.613H76.3339V192.113H73.8339V194.613ZM59.6467 194.613V192.113H57.1467V194.613H59.6467ZM73.8339 199.613V202.113H76.3339V199.613H73.8339ZM59.6467 199.613H57.1467V202.113H59.6467V199.613ZM73.8339 182.513H76.3339V180.013H73.8339V182.513ZM59.6467 182.513V180.013H57.1467V182.513H59.6467ZM73.8339 187.513V190.013H76.3339V187.513H73.8339ZM59.6467 187.513H57.1467V190.013H59.6467V187.513ZM73.8339 170.412H76.3339V167.912H73.8339V170.412ZM59.6467 170.412V167.912H57.1467V170.412H59.6467ZM73.8339 175.412V177.912H76.3339V175.412H73.8339ZM59.6467 175.412H57.1467V177.912H59.6467V175.412ZM73.8339 158.312H76.3339V155.812H73.8339V158.312ZM59.6467 158.312V155.812H57.1467V158.312H59.6467ZM73.8339 163.312V165.812H76.3339V163.312H73.8339ZM59.6467 163.312H57.1467V165.812H59.6467V163.312ZM73.8339 146.212H76.3339V143.712H73.8339V146.212ZM59.6467 146.212V143.712H57.1467V146.212H59.6467ZM73.8339 151.212V153.712H76.3339V151.212H73.8339ZM59.6467 151.212H57.1467V153.712H59.6467V151.212ZM73.8339 134.112H76.3339V131.612H73.8339V134.112ZM59.6467 134.112V131.612H57.1467V134.112H59.6467ZM73.8339 139.112V141.612H76.3339V139.112H73.8339ZM59.6467 139.112H57.1467V141.612H59.6467V139.112ZM192.009 216.313H177.822V221.313H192.009V216.313ZM194.509 223.813V218.813H189.509V223.813H194.509ZM177.822 226.313H192.009V221.313H177.822V226.313ZM175.322 218.813V223.813H180.322V218.813H175.322ZM192.009 204.213H177.822V209.213H192.009V204.213ZM194.509 211.713V206.713H189.509V211.713H194.509ZM177.822 214.213H192.009V209.213H177.822V214.213ZM175.322 206.713V211.713H180.322V206.713H175.322ZM192.009 192.113H177.822V197.113H192.009V192.113ZM194.509 199.613V194.613H189.509V199.613H194.509ZM177.822 202.113H192.009V197.113H177.822V202.113ZM175.322 194.613V199.613H180.322V194.613H175.322ZM192.009 180.013H177.822V185.013H192.009V180.013ZM194.509 187.513V182.513H189.509V187.513H194.509ZM177.822 190.013H192.009V185.013H177.822V190.013ZM175.322 182.513V187.513H180.322V182.513H175.322ZM192.009 167.912H177.822V172.912H192.009V167.912ZM194.509 175.412V170.412H189.509V175.412H194.509ZM177.822 177.912H192.009V172.912H177.822V177.912ZM175.322 170.412V175.412H180.322V170.412H175.322ZM192.009 155.812H177.822V160.812H192.009V155.812ZM194.509 163.312V158.312H189.509V163.312H194.509ZM177.822 165.812H192.009V160.812H177.822V165.812ZM175.322 158.312V163.312H180.322V158.312H175.322ZM192.009 143.712H177.822V148.712H192.009V143.712ZM194.509 151.212V146.212H189.509V151.212H194.509ZM177.822 153.712H192.009V148.712H177.822V153.712ZM175.322 146.212V151.212H180.322V146.212H175.322ZM192.009 131.612H177.822V136.612H192.009V131.612ZM194.509 139.112V134.112H189.509V139.112H194.509ZM177.822 141.612H192.009V136.612H177.822V141.612ZM175.322 134.112V139.112H180.322V134.112H175.322ZM73.8339 216.313H59.6467V221.313H73.8339V216.313ZM76.3339 223.813V218.813H71.3339V223.813H76.3339ZM59.6467 226.313H73.8339V221.313H59.6467V226.313ZM57.1467 218.813V223.813H62.1467V218.813H57.1467ZM73.8339 204.213H59.6467V209.213H73.8339V204.213ZM76.3339 211.713V206.713H71.3339V211.713H76.3339ZM59.6467 214.213H73.8339V209.213H59.6467V214.213ZM57.1467 206.713V211.713H62.1467V206.713H57.1467ZM73.8339 192.113H59.6467V197.113H73.8339V192.113ZM76.3339 199.613V194.613H71.3339V199.613H76.3339ZM59.6467 202.113H73.8339V197.113H59.6467V202.113ZM57.1467 194.613V199.613H62.1467V194.613H57.1467ZM73.8339 180.013H59.6467V185.013H73.8339V180.013ZM76.3339 187.513V182.513H71.3339V187.513H76.3339ZM59.6467 190.013H73.8339V185.013H59.6467V190.013ZM57.1467 182.513V187.513H62.1467V182.513H57.1467ZM73.8339 167.912H59.6467V172.912H73.8339V167.912ZM76.3339 175.412V170.412H71.3339V175.412H76.3339ZM59.6467 177.912H73.8339V172.912H59.6467V177.912ZM57.1467 170.412V175.412H62.1467V170.412H57.1467ZM73.8339 155.812H59.6467V160.812H73.8339V155.812ZM76.3339 163.312V158.312H71.3339V163.312H76.3339ZM59.6467 165.812H73.8339V160.812H59.6467V165.812ZM57.1467 158.312V163.312H62.1467V158.312H57.1467ZM73.8339 143.712H59.6467V148.712H73.8339V143.712ZM76.3339 151.212V146.212H71.3339V151.212H76.3339ZM59.6467 153.712H73.8339V148.712H59.6467V153.712ZM57.1467 146.212V151.212H62.1467V146.212H57.1467ZM73.8339 131.612H59.6467V136.612H73.8339V131.612ZM76.3339 139.112V134.112H71.3339V139.112H76.3339ZM59.6467 141.612H73.8339V136.612H59.6467V141.612ZM57.1467 134.112V139.112H62.1467V134.112H57.1467Z" fill="#3E3D3D"/>
<path fill-rule="evenodd" clip-rule="evenodd" d="M111.489 161.7H131.529V129.912H111.489V161.7Z" fill="#3E3D3D"/>
</svg>
