<svg width="933" height="201" viewBox="0 0 933 201" fill="none" xmlns="http://www.w3.org/2000/svg">
<rect x="1" y="37" width="155" height="67" rx="10" stroke="#4B4B4B" stroke-width="2"/>
<path d="M211.368 76H213.078V62.59H211.368V76ZM219.901 66.244C218.731 66.244 217.705 66.73 217.147 67.558V66.46H215.635V76H217.183V70.222C217.183 68.728 218.137 67.738 219.559 67.738C220.999 67.738 221.917 68.71 221.917 70.222V76H223.465V69.718C223.465 67.72 221.971 66.244 219.901 66.244ZM230.587 66.244C229.111 66.244 227.815 66.874 227.167 67.918V66.46H225.655V79.6H227.203V74.686C227.905 75.64 229.147 76.216 230.551 76.216C233.269 76.216 235.411 74.11 235.411 71.212C235.411 68.314 233.269 66.244 230.587 66.244ZM230.497 74.722C228.589 74.722 227.203 73.246 227.203 71.23C227.203 69.214 228.607 67.738 230.497 67.738C232.369 67.738 233.773 69.214 233.773 71.23C233.773 73.246 232.387 74.722 230.497 74.722ZM243.341 66.46V72.238C243.341 73.732 242.387 74.722 240.983 74.722C239.543 74.722 238.607 73.75 238.607 72.238V66.46H237.059V72.526C237.059 74.56 238.571 76.216 240.641 76.216C241.793 76.216 242.819 75.73 243.377 74.902V76H244.889V66.46H243.341ZM251.254 76.108C251.524 76.108 251.902 76.09 252.208 76.018V74.758C252.01 74.794 251.74 74.812 251.542 74.812C249.904 74.812 249.796 73.696 249.796 73.084V67.936H252.1V66.46H249.796V63.364H248.248V65.056C248.248 65.902 247.708 66.46 246.88 66.46H246.394V67.936H248.248V73.084C248.248 75.01 249.328 76.108 251.254 76.108ZM261.133 76.108C261.403 76.108 261.781 76.09 262.087 76.018V74.758C261.889 74.794 261.619 74.812 261.421 74.812C259.783 74.812 259.675 73.696 259.675 73.084V67.936H261.979V66.46H259.675V63.364H258.127V65.056C258.127 65.902 257.587 66.46 256.759 66.46H256.273V67.936H258.127V73.084C258.127 75.01 259.207 76.108 261.133 76.108ZM272.191 70.816C272.191 68.386 270.463 66.244 267.745 66.244C265.081 66.244 263.101 68.332 263.101 71.212C263.101 74.092 265.135 76.216 267.871 76.216C269.833 76.216 271.381 75.154 271.975 73.84L270.625 73.12C270.121 74.092 269.239 74.812 267.889 74.812C266.215 74.812 264.793 73.588 264.721 71.698H272.119C272.173 71.392 272.191 71.086 272.191 70.816ZM264.757 70.366C264.973 68.638 266.251 67.612 267.745 67.612C269.149 67.612 270.463 68.782 270.481 70.366H264.757ZM281.508 66.46H279.672L277.188 70.006L274.704 66.46H272.868L276.252 71.23L272.868 76H274.704L277.188 72.454L279.654 76H281.49L278.106 71.23L281.508 66.46ZM287.079 76.108C287.349 76.108 287.727 76.09 288.033 76.018V74.758C287.835 74.794 287.565 74.812 287.367 74.812C285.729 74.812 285.621 73.696 285.621 73.084V67.936H287.925V66.46H285.621V63.364H284.073V65.056C284.073 65.902 283.533 66.46 282.705 66.46H282.219V67.936H284.073V73.084C284.073 75.01 285.153 76.108 287.079 76.108ZM293.96 76.216C296.714 76.216 298.874 74.11 298.874 71.212C298.874 68.314 296.732 66.244 293.96 66.244C291.188 66.244 289.046 68.314 289.046 71.212C289.046 74.11 291.206 76.216 293.96 76.216ZM293.96 74.722C292.106 74.722 290.684 73.228 290.684 71.23C290.684 69.232 292.106 67.738 293.96 67.738C295.814 67.738 297.236 69.232 297.236 71.23C297.236 73.228 295.814 74.722 293.96 74.722Z" fill="#4B4B4B"/>
<path d="M689.704 76.216C693.502 76.216 696.508 73.3 696.508 69.286C696.508 65.29 693.502 62.374 689.704 62.374C685.924 62.374 682.918 65.272 682.918 69.286C682.918 73.318 685.924 76.216 689.704 76.216ZM689.704 74.632C686.752 74.632 684.628 72.274 684.628 69.286C684.628 66.334 686.734 63.958 689.704 63.958C692.692 63.958 694.798 66.334 694.798 69.286C694.798 72.274 692.674 74.632 689.704 74.632ZM704.724 66.46V72.238C704.724 73.732 703.77 74.722 702.366 74.722C700.926 74.722 699.99 73.75 699.99 72.238V66.46H698.442V72.526C698.442 74.56 699.954 76.216 702.024 76.216C703.176 76.216 704.202 75.73 704.76 74.902V76H706.272V66.46H704.724ZM712.637 76.108C712.907 76.108 713.285 76.09 713.591 76.018V74.758C713.393 74.794 713.123 74.812 712.925 74.812C711.287 74.812 711.179 73.696 711.179 73.084V67.936H713.483V66.46H711.179V63.364H709.631V65.056C709.631 65.902 709.091 66.46 708.263 66.46H707.777V67.936H709.631V73.084C709.631 75.01 710.711 76.108 712.637 76.108ZM720.358 66.244C718.882 66.244 717.586 66.874 716.938 67.918V66.46H715.426V79.6H716.974V74.686C717.676 75.64 718.918 76.216 720.322 76.216C723.04 76.216 725.182 74.11 725.182 71.212C725.182 68.314 723.04 66.244 720.358 66.244ZM720.268 74.722C718.36 74.722 716.974 73.246 716.974 71.23C716.974 69.214 718.378 67.738 720.268 67.738C722.14 67.738 723.544 69.214 723.544 71.23C723.544 73.246 722.158 74.722 720.268 74.722ZM733.112 66.46V72.238C733.112 73.732 732.158 74.722 730.754 74.722C729.314 74.722 728.378 73.75 728.378 72.238V66.46H726.83V72.526C726.83 74.56 728.342 76.216 730.412 76.216C731.564 76.216 732.59 75.73 733.148 74.902V76H734.66V66.46H733.112ZM741.026 76.108C741.296 76.108 741.674 76.09 741.98 76.018V74.758C741.782 74.794 741.512 74.812 741.314 74.812C739.676 74.812 739.568 73.696 739.568 73.084V67.936H741.872V66.46H739.568V63.364H738.02V65.056C738.02 65.902 737.48 66.46 736.652 66.46H736.166V67.936H738.02V73.084C738.02 75.01 739.1 76.108 741.026 76.108Z" fill="#4B4B4B"/>
<path d="M788.368 76H790.078V70.852H793.156C795.91 70.852 797.764 69.232 797.764 66.73C797.764 64.21 795.892 62.59 793.156 62.59H788.368V76ZM790.078 69.358V64.084H793.156C794.866 64.084 796 65.146 796 66.712C796 68.296 794.866 69.358 793.156 69.358H790.078ZM803.752 66.352C802.6 66.352 801.682 66.766 801.178 67.648V66.46H799.684V76H801.232V70.312C801.232 68.728 802.15 67.828 803.518 67.828H804.526V66.352H803.752ZM810.562 76.216C813.316 76.216 815.476 74.11 815.476 71.212C815.476 68.314 813.334 66.244 810.562 66.244C807.79 66.244 805.648 68.314 805.648 71.212C805.648 74.11 807.808 76.216 810.562 76.216ZM810.562 74.722C808.708 74.722 807.286 73.228 807.286 71.23C807.286 69.232 808.708 67.738 810.562 67.738C812.416 67.738 813.838 69.232 813.838 71.23C813.838 73.228 812.416 74.722 810.562 74.722ZM821.545 76.216C823.399 76.216 825.001 75.1 825.595 73.696L824.209 72.976C823.741 74.02 822.787 74.722 821.545 74.722C819.745 74.722 818.413 73.21 818.413 71.23C818.413 69.214 819.745 67.738 821.545 67.738C822.787 67.738 823.741 68.44 824.209 69.484L825.595 68.764C825.001 67.342 823.417 66.244 821.545 66.244C818.809 66.244 816.775 68.35 816.775 71.212C816.775 74.074 818.809 76.216 821.545 76.216ZM835.797 70.816C835.797 68.386 834.069 66.244 831.351 66.244C828.687 66.244 826.707 68.332 826.707 71.212C826.707 74.092 828.741 76.216 831.477 76.216C833.439 76.216 834.987 75.154 835.581 73.84L834.231 73.12C833.727 74.092 832.845 74.812 831.495 74.812C829.821 74.812 828.399 73.588 828.327 71.698H835.725C835.779 71.392 835.797 71.086 835.797 70.816ZM828.363 70.366C828.579 68.638 829.857 67.612 831.351 67.612C832.755 67.612 834.069 68.782 834.087 70.366H828.363ZM840.789 76.216C842.841 76.216 844.263 75.082 844.263 73.426C844.263 72.148 843.399 71.212 841.797 70.744L840.177 70.258C839.349 70.006 838.809 69.574 838.809 68.926C838.809 68.17 839.493 67.666 840.519 67.666C841.653 67.666 842.553 68.26 842.949 69.286L844.245 68.656C843.687 67.162 842.283 66.244 840.519 66.244C838.539 66.244 837.207 67.36 837.207 69.016C837.207 70.312 838.035 71.23 839.637 71.68L841.203 72.112C842.085 72.364 842.661 72.742 842.661 73.426C842.661 74.218 841.905 74.794 840.789 74.794C839.601 74.794 838.575 74.164 838.089 72.958L836.775 73.606C837.387 75.226 838.917 76.216 840.789 76.216ZM849.622 66.244C847.858 66.244 846.31 67.252 845.77 68.548L847.156 69.268C847.57 68.332 848.47 67.72 849.622 67.72C850.882 67.72 851.782 68.44 851.782 69.538V69.808L848.47 70.546C846.544 70.978 845.41 71.95 845.41 73.354C845.41 75.028 846.778 76.216 848.812 76.216C850.036 76.216 851.17 75.622 851.818 74.668V76H853.33V69.538C853.33 67.594 851.8 66.244 849.622 66.244ZM848.902 74.83C847.768 74.83 847.048 74.254 847.048 73.354C847.048 72.58 847.75 71.986 848.83 71.752L851.782 71.068V71.896C851.782 73.57 850.576 74.83 848.902 74.83ZM863.022 62.59V67.864C862.338 66.856 861.06 66.244 859.62 66.244C856.938 66.244 854.814 68.35 854.814 71.23C854.814 74.11 856.92 76.216 859.638 76.216C861.078 76.216 862.356 75.64 863.058 74.614V76H864.57V62.59H863.022ZM859.728 74.722C857.838 74.722 856.452 73.246 856.452 71.23C856.452 69.232 857.838 67.738 859.728 67.738C861.618 67.738 863.022 69.232 863.022 71.23C863.022 73.246 861.618 74.722 859.728 74.722ZM871.312 76.216C874.066 76.216 876.226 74.11 876.226 71.212C876.226 68.314 874.084 66.244 871.312 66.244C868.54 66.244 866.398 68.314 866.398 71.212C866.398 74.11 868.558 76.216 871.312 76.216ZM871.312 74.722C869.458 74.722 868.036 73.228 868.036 71.23C868.036 69.232 869.458 67.738 871.312 67.738C873.166 67.738 874.588 69.232 874.588 71.23C874.588 73.228 873.166 74.722 871.312 74.722Z" fill="#4B4B4B"/>
<path d="M40.048 77.216C42.73 77.216 44.566 75.704 44.566 73.49C44.566 71.69 43.468 70.556 41.272 69.89L38.878 69.17C37.564 68.792 36.862 68 36.862 66.974C36.862 65.714 37.924 64.868 39.544 64.868C41.182 64.868 42.406 65.732 42.964 67.316L44.458 66.614C43.846 64.832 41.992 63.374 39.526 63.374C36.952 63.374 35.152 64.904 35.152 67.082C35.152 68.738 36.232 70.088 38.374 70.718L40.876 71.474C42.208 71.87 42.856 72.482 42.856 73.616C42.856 74.858 41.74 75.722 40.048 75.722C38.266 75.722 36.88 74.75 36.25 72.914L34.738 73.58C35.386 75.614 37.42 77.216 40.048 77.216ZM46.4346 65.696H47.9826V63.59H46.4346V65.696ZM46.4346 77H47.9826V67.46H46.4346V77ZM57.8853 63.59V68.864C57.2013 67.856 55.9233 67.244 54.4833 67.244C51.8013 67.244 49.6773 69.35 49.6773 72.23C49.6773 75.11 51.7833 77.216 54.5013 77.216C55.9413 77.216 57.2193 76.64 57.9213 75.614V77H59.4333V63.59H57.8853ZM54.5913 75.722C52.7013 75.722 51.3153 74.246 51.3153 72.23C51.3153 70.232 52.7013 68.738 54.5913 68.738C56.4813 68.738 57.8853 70.232 57.8853 72.23C57.8853 74.246 56.4813 75.722 54.5913 75.722ZM70.3513 71.816C70.3513 69.386 68.6233 67.244 65.9053 67.244C63.2413 67.244 61.2613 69.332 61.2613 72.212C61.2613 75.092 63.2953 77.216 66.0313 77.216C67.9933 77.216 69.5413 76.154 70.1353 74.84L68.7853 74.12C68.2813 75.092 67.3993 75.812 66.0493 75.812C64.3753 75.812 62.9533 74.588 62.8813 72.698H70.2793C70.3333 72.392 70.3513 72.086 70.3513 71.816ZM62.9173 71.366C63.1333 69.638 64.4113 68.612 65.9053 68.612C67.3093 68.612 68.6233 69.782 68.6413 71.366H62.9173ZM82.2202 67.244C80.8882 67.244 79.7722 67.856 79.1602 68.936C78.5842 67.892 77.4862 67.244 76.1722 67.244C75.0382 67.244 74.0662 67.73 73.5262 68.558V67.46H72.0142V77H73.5622V71.222C73.5622 69.71 74.4622 68.738 75.8122 68.738C77.1802 68.738 78.0622 69.692 78.0622 71.222V77H79.6102V71.222C79.6102 69.71 80.5102 68.738 81.8602 68.738C83.2282 68.738 84.1102 69.692 84.1102 71.222V77H85.6582V70.718C85.6582 68.702 84.2002 67.244 82.2202 67.244ZM92.2261 77.216C94.9801 77.216 97.1401 75.11 97.1401 72.212C97.1401 69.314 94.9981 67.244 92.2261 67.244C89.4541 67.244 87.3121 69.314 87.3121 72.212C87.3121 75.11 89.4721 77.216 92.2261 77.216ZM92.2261 75.722C90.3721 75.722 88.9501 74.228 88.9501 72.23C88.9501 70.232 90.3721 68.738 92.2261 68.738C94.0801 68.738 95.5021 70.232 95.5021 72.23C95.5021 74.228 94.0801 75.722 92.2261 75.722ZM103.353 77.216C106.107 77.216 108.267 75.11 108.267 72.212C108.267 69.314 106.125 67.244 103.353 67.244C100.581 67.244 98.439 69.314 98.439 72.212C98.439 75.11 100.599 77.216 103.353 77.216ZM103.353 75.722C101.499 75.722 100.077 74.228 100.077 72.23C100.077 70.232 101.499 68.738 103.353 68.738C105.207 68.738 106.629 70.232 106.629 72.23C106.629 74.228 105.207 75.722 103.353 75.722ZM117.774 63.59V68.864C117.09 67.856 115.812 67.244 114.372 67.244C111.69 67.244 109.566 69.35 109.566 72.23C109.566 75.11 111.672 77.216 114.39 77.216C115.83 77.216 117.108 76.64 117.81 75.614V77H119.322V63.59H117.774ZM114.48 75.722C112.59 75.722 111.204 74.246 111.204 72.23C111.204 70.232 112.59 68.738 114.48 68.738C116.37 68.738 117.774 70.232 117.774 72.23C117.774 74.246 116.37 75.722 114.48 75.722Z" fill="#4B4B4B"/>
<path d="M889.688 70H918C925.732 70 932 76.268 932 84V186C932 193.732 925.732 200 918 200H86C78.268 200 72 193.732 72 186V152.371V117.5" stroke="#4B4B4B" stroke-width="2"/>
<path d="M76.8491 121.95L71.8994 117L66.9497 121.95" stroke="#4B4B4B" stroke-width="2"/>
<path d="M198.95 75.8493L203.899 70.8995L198.95 65.9498" stroke="#4B4B4B" stroke-width="2"/>
<path d="M666.95 75.8493L671.899 70.8995L666.95 65.9498" stroke="#4B4B4B" stroke-width="2"/>
<path d="M772.95 75.8493L777.899 70.8995L772.95 65.9498" stroke="#4B4B4B" stroke-width="2"/>
<rect x="413" y="92" width="155" height="49" rx="10" stroke="#4B4B4B" stroke-width="2"/>
<rect x="413" y="1" width="155" height="49" rx="10" stroke="#4B4B4B" stroke-width="2"/>
<path d="M447.212 33H448.922V21.084H452.54V19.59H443.558V21.084H447.212V33ZM461.562 27.816C461.562 25.386 459.834 23.244 457.116 23.244C454.452 23.244 452.472 25.332 452.472 28.212C452.472 31.092 454.506 33.216 457.242 33.216C459.204 33.216 460.752 32.154 461.346 30.84L459.996 30.12C459.492 31.092 458.61 31.812 457.26 31.812C455.586 31.812 454.164 30.588 454.092 28.698H461.49C461.544 28.392 461.562 28.086 461.562 27.816ZM454.128 27.366C454.344 25.638 455.622 24.612 457.116 24.612C458.52 24.612 459.834 25.782 459.852 27.366H454.128ZM467.491 23.244C466.321 23.244 465.295 23.73 464.737 24.558V23.46H463.225V33H464.773V27.222C464.773 25.728 465.727 24.738 467.149 24.738C468.589 24.738 469.507 25.71 469.507 27.222V33H471.055V26.718C471.055 24.72 469.561 23.244 467.491 23.244ZM476.575 33.216C478.627 33.216 480.049 32.082 480.049 30.426C480.049 29.148 479.185 28.212 477.583 27.744L475.963 27.258C475.135 27.006 474.595 26.574 474.595 25.926C474.595 25.17 475.279 24.666 476.305 24.666C477.439 24.666 478.339 25.26 478.735 26.286L480.031 25.656C479.473 24.162 478.069 23.244 476.305 23.244C474.325 23.244 472.993 24.36 472.993 26.016C472.993 27.312 473.821 28.23 475.423 28.68L476.989 29.112C477.871 29.364 478.447 29.742 478.447 30.426C478.447 31.218 477.691 31.794 476.575 31.794C475.387 31.794 474.361 31.164 473.875 29.958L472.561 30.606C473.173 32.226 474.703 33.216 476.575 33.216ZM486.109 33.216C488.863 33.216 491.023 31.11 491.023 28.212C491.023 25.314 488.881 23.244 486.109 23.244C483.337 23.244 481.195 25.314 481.195 28.212C481.195 31.11 483.355 33.216 486.109 33.216ZM486.109 31.722C484.255 31.722 482.833 30.228 482.833 28.23C482.833 26.232 484.255 24.738 486.109 24.738C487.963 24.738 489.385 26.232 489.385 28.23C489.385 30.228 487.963 31.722 486.109 31.722ZM496.93 23.352C495.778 23.352 494.86 23.766 494.356 24.648V23.46H492.862V33H494.41V27.312C494.41 25.728 495.328 24.828 496.696 24.828H497.704V23.352H496.93ZM499.546 33H501.256V27.096H507.826V25.602H501.256V21.084H508.294V19.59H499.546V33ZM510.124 33H511.672V19.59H510.124V33ZM518.417 33.216C521.171 33.216 523.331 31.11 523.331 28.212C523.331 25.314 521.189 23.244 518.417 23.244C515.645 23.244 513.503 25.314 513.503 28.212C513.503 31.11 515.663 33.216 518.417 33.216ZM518.417 31.722C516.563 31.722 515.141 30.228 515.141 28.23C515.141 26.232 516.563 24.738 518.417 24.738C520.271 24.738 521.693 26.232 521.693 28.23C521.693 30.228 520.271 31.722 518.417 31.722ZM536.569 23.46L534.247 30.678L532.051 23.46H530.359L528.163 30.714L525.841 23.46H524.095L527.425 33H528.883L531.223 25.584L533.545 33H534.985L538.315 23.46H536.569Z" fill="#4B4B4B"/>
<path d="M465.704 122.216C469.502 122.216 472.508 119.3 472.508 115.286C472.508 111.29 469.502 108.374 465.704 108.374C461.924 108.374 458.918 111.272 458.918 115.286C458.918 119.318 461.924 122.216 465.704 122.216ZM465.704 120.632C462.752 120.632 460.628 118.274 460.628 115.286C460.628 112.334 462.734 109.958 465.704 109.958C468.692 109.958 470.798 112.334 470.798 115.286C470.798 118.274 468.674 120.632 465.704 120.632ZM479.554 112.244C478.078 112.244 476.782 112.874 476.134 113.918V112.46H474.622V125.6H476.17V120.686C476.872 121.64 478.114 122.216 479.518 122.216C482.236 122.216 484.378 120.11 484.378 117.212C484.378 114.314 482.236 112.244 479.554 112.244ZM479.464 120.722C477.556 120.722 476.17 119.246 476.17 117.23C476.17 115.214 477.574 113.738 479.464 113.738C481.336 113.738 482.74 115.214 482.74 117.23C482.74 119.246 481.354 120.722 479.464 120.722ZM494.756 116.816C494.756 114.386 493.028 112.244 490.31 112.244C487.646 112.244 485.666 114.332 485.666 117.212C485.666 120.092 487.7 122.216 490.436 122.216C492.398 122.216 493.946 121.154 494.54 119.84L493.19 119.12C492.686 120.092 491.804 120.812 490.454 120.812C488.78 120.812 487.358 119.588 487.286 117.698H494.684C494.738 117.392 494.756 117.086 494.756 116.816ZM487.322 116.366C487.538 114.638 488.816 113.612 490.31 113.612C491.714 113.612 493.028 114.782 493.046 116.366H487.322ZM500.684 112.244C499.514 112.244 498.488 112.73 497.93 113.558V112.46H496.418V122H497.966V116.222C497.966 114.728 498.92 113.738 500.342 113.738C501.782 113.738 502.7 114.71 502.7 116.222V122H504.248V115.718C504.248 113.72 502.754 112.244 500.684 112.244ZM506.618 122H508.328V108.59H506.618V122ZM516.897 108.59H514.935L510.075 122H511.875L512.991 118.796H518.841L519.957 122H521.757L516.897 108.59ZM513.513 117.302L515.925 110.444L518.319 117.302H513.513Z" fill="#4B4B4B"/>
<path d="M413 25H367.833C360.101 25 353.833 31.268 353.833 39V59.1667C353.833 65.702 348.535 71 342 71V71" stroke="#4B4B4B" stroke-width="2"/>
<path d="M569 117L614.167 117C621.899 117 628.167 110.732 628.167 103L628.167 82.8333C628.167 76.298 633.465 71 640 71V71" stroke="#4B4B4B" stroke-width="2"/>
<path d="M413 117H367.833C360.101 117 353.833 110.732 353.833 103V82.8333C353.833 76.298 348.535 71 342 71V71" stroke="#4B4B4B" stroke-width="2"/>
<path d="M569 25L614.167 25C621.899 25 628.167 31.268 628.167 39L628.167 59.1667C628.167 65.702 633.465 71 640 71V71" stroke="#4B4B4B" stroke-width="2"/>
<g clip-path="url(#clip0_159:346)">
<path d="M500.326 76.4368C504.642 74.5485 505.296 68.7089 501.538 65.8963C502.523 62.3489 499.089 59.0934 495.57 60.3554C494.608 58.7765 492.888 57.7915 491.001 57.7915C489.008 57.7915 487.281 58.8813 486.366 60.4654C482.965 58.9825 479.394 61.9403 480.019 65.4603C476.313 67.9473 478.025 73.8531 482.584 73.8531H488.709C488.677 75.5519 490.053 76.965 491.766 76.965C492.036 76.965 493.574 76.9608 495.124 76.9562L497.973 81.8311C498.11 82.0648 498.36 82.2084 498.631 82.2084H501.678C502.227 82.2084 502.596 81.6453 502.377 81.1422L500.326 76.4368ZM491.001 62.4014C491.42 62.4014 491.761 62.7426 491.761 63.162C491.761 63.5814 491.42 63.9226 491.001 63.9226C490.581 63.9226 490.24 63.5814 490.24 63.162C490.24 62.7426 490.581 62.4014 491.001 62.4014V62.4014ZM490.233 73.9075C490.233 73.0618 490.92 72.3737 491.766 72.3737H494.063C494.484 72.3737 494.825 72.0326 494.825 71.6118C494.825 71.1911 494.484 70.85 494.063 70.85H491.766C490.657 70.85 489.684 71.4434 489.148 72.3294H482.616V70.5181L483.942 69.9944C485.332 71.5887 487.951 70.5919 487.951 68.4949C487.951 67.2346 486.925 66.2094 485.665 66.2094C484.385 66.2094 483.335 67.2715 483.382 68.5777L481.575 69.2913C481.284 69.4062 481.093 69.6872 481.093 69.9999V71.9404C478.942 70.7357 479.011 67.6112 481.231 66.5156C481.569 66.3489 481.734 65.9605 481.62 65.6017C481.223 64.3518 481.662 63.0639 482.617 62.2874V63.9226C482.617 64.3434 482.958 64.6844 483.378 64.6844H485.667C486.087 64.6844 486.428 64.3434 486.428 63.9226C486.428 63.5018 486.087 63.1607 485.667 63.1607H484.14V61.6356C484.906 61.5378 485.654 61.7224 486.273 62.1496C486.681 62.4308 487.244 62.254 487.419 61.7917C487.887 60.5527 488.971 59.6543 490.239 59.3933V61.0089C489.353 61.3233 488.716 62.1696 488.716 63.162C488.716 64.4216 489.741 65.4464 491.001 65.4464C492.26 65.4464 493.285 64.4217 493.285 63.162C493.285 62.1696 492.649 61.3233 491.763 61.0089V59.3919C492.983 59.6388 494.024 60.4695 494.525 61.6473C494.703 62.0664 495.208 62.237 495.604 62.0108C497.227 61.0841 499.358 61.8037 500.009 63.6699H495.533C495.282 63.6699 495.048 63.793 494.906 63.9991L492.33 67.7307H491.001C490.58 67.7307 490.239 68.0718 490.239 68.4925C490.239 68.9133 490.58 69.2544 491.001 69.2544H492.73C492.981 69.2544 493.215 69.1314 493.357 68.9252L495.933 65.1937H500.135C500.094 65.4321 500.025 65.6675 499.925 65.895C499.772 66.246 499.904 66.6561 500.232 66.8529C502.177 68.0175 502.913 70.3158 502.23 72.3043H499.897L499.365 70.9708C500.946 69.5807 499.955 66.9713 497.859 66.9713C496.599 66.9713 495.575 67.996 495.575 69.2557C495.575 70.5444 496.648 71.5895 497.951 71.5376L498.674 73.3487C498.789 73.6381 499.07 73.8281 499.381 73.8281H501.351C500.511 74.7975 499.275 75.4156 497.9 75.4243C497.336 75.426 492.277 75.4413 491.766 75.4413C490.92 75.4413 490.233 74.7533 490.233 73.9075V73.9075ZM484.903 68.495C484.903 68.0749 485.245 67.7332 485.665 67.7332C486.085 67.7332 486.427 68.0749 486.427 68.495C486.427 68.9151 486.085 69.2569 485.665 69.2569C485.245 69.2568 484.903 68.9151 484.903 68.495ZM497.859 70.0162C497.439 70.0162 497.098 69.675 497.098 69.2556C497.098 68.8362 497.439 68.495 497.859 68.495C498.278 68.495 498.619 68.8362 498.619 69.2556C498.619 69.675 498.278 70.0162 497.859 70.0162ZM499.068 80.6847L496.886 76.9511C497.909 76.948 498.255 76.9655 498.853 76.8695L500.515 80.6847H499.068Z" fill="#4B4B4B"/>
</g>
<path d="M204 71H156" stroke="#4B4B4B" stroke-width="2"/>
<path d="M343 71H306" stroke="#4B4B4B" stroke-width="2"/>
<path d="M672 71H639.5" stroke="#4B4B4B" stroke-width="2"/>
<path d="M778 71H750.5" stroke="#4B4B4B" stroke-width="2"/>
<defs>
<clipPath id="clip0_159:346">
<rect width="26" height="26" fill="white" transform="translate(478 57)"/>
</clipPath>
</defs>
</svg>
