<svg width="106" height="41" viewBox="0 0 106 41" fill="none" xmlns="http://www.w3.org/2000/svg">
<path d="M19.8429 31.7094L14.1701 37.2252V32.6752V31.3281H12.8229H1.34714V1.34714H36.3727V31.3281H20.782H20.235L19.8429 31.7094Z" stroke="#888B94" stroke-width="2.69427"/>
<rect x="16.7045" y="22.6317" width="3.41274" height="3.41274" fill="#888B94"/>
<rect x="20.1173" y="19.2189" width="3.41274" height="3.41274" fill="#888B94"/>
<rect x="13.2917" y="19.2189" width="3.41274" height="3.41274" fill="#888B94"/>
<rect x="9.87903" y="15.8064" width="3.41274" height="3.41274" fill="#888B94"/>
<rect x="6.46625" y="12.3937" width="3.41274" height="3.41274" fill="#888B94"/>
<rect x="9.87903" y="8.9809" width="3.41274" height="3.41274" fill="#888B94"/>
<rect x="13.2917" y="8.9809" width="3.41274" height="3.41274" fill="#888B94"/>
<rect x="16.7045" y="12.3937" width="3.41274" height="3.41274" fill="#888B94"/>
<rect x="20.1173" y="8.9809" width="3.41274" height="3.41274" fill="#888B94"/>
<rect x="23.53" y="15.8064" width="3.41274" height="3.41274" fill="#888B94"/>
<rect x="26.9427" y="12.3937" width="3.41274" height="3.41274" fill="#888B94"/>
<rect x="23.53" y="8.9809" width="3.41274" height="3.41274" fill="#888B94"/>
<path d="M55.8929 14.9107H54.8036V16H45V13.8214H51.5357V11.6429H46.0893V10.5536H45V6.19643H46.0893V5.10714H55.8929V7.28571H49.3571V9.46429H54.8036V10.5536H55.8929V14.9107ZM62.4286 16H58.0714V5.10714H62.4286V16ZM75.5 14.9107H74.4107V16H64.6071V5.10714H74.4107V6.19643H75.5V14.9107ZM71.1429 13.8214V7.28571H68.9643V13.8214H71.1429ZM88.5714 16H78.7679V14.9107H77.6786V6.19643H78.7679V5.10714H88.5714V7.28571H82.0357V9.46429H85.3036V11.6429H82.0357V13.8214H88.5714V16ZM62.4286 29H58.0714V20.2857H55.8929V29H51.5357V20.2857H49.3571V29H45V18.1071H61.3393V19.1964H62.4286V29ZM75.5 27.9107H74.4107V29H65.6964V27.9107H64.6071V19.1964H65.6964V18.1071H74.4107V19.1964H75.5V27.9107ZM71.1429 26.8214V20.2857H68.9643V26.8214H71.1429ZM88.5714 27.9107H87.4821V29H78.7679V27.9107H77.6786V19.1964H78.7679V18.1071H87.4821V19.1964H88.5714V27.9107ZM84.2143 26.8214V20.2857H82.0357V26.8214H84.2143ZM101.643 27.9107H100.554V29H90.75V18.1071H100.554V19.1964H101.643V27.9107ZM97.2857 26.8214V20.2857H95.1071V26.8214H97.2857Z" fill="#888B94"/>
</svg>
