<svg width="499" height="51" viewBox="0 0 499 51" fill="none" xmlns="http://www.w3.org/2000/svg">
<path d="M0 23.6845V12.4122L21.827 0.0421143V50.9999L13.13 45.9759V16.1696L0 23.6845Z" fill="#BFBFBF"/>
<path d="M23.8113 50.9578V0L45.6805 12.3278V23.6846L32.5505 16.1697V21.7848L39.1366 25.5422V35.3369L32.5505 31.5795V45.8071L23.8113 50.9578Z" fill="#BFBFBF"/>
<g clip-path="url(#clip0_129:927)">
<path d="M317.524 50.9995C314.506 50.8714 311.49 49.7516 308.958 47.3764C308.598 47.0383 307.907 46.8067 307.421 46.8771C298.512 48.1697 290.858 39.8589 293.058 31.2143C293.254 30.4445 293.164 29.9123 292.645 29.2401C287.137 22.1116 290.637 11.6712 299.363 9.14931C300.047 8.95171 300.403 8.64333 300.681 7.99837C304.355 -0.546848 314.951 -2.67444 321.797 3.709C322.132 4.02138 322.795 4.19743 323.26 4.12994C330.191 3.12487 336.966 8.09606 337.775 14.973C337.974 16.6595 337.629 18.4056 337.587 20.1256C337.576 20.5767 337.616 21.1427 337.873 21.4701C343.548 28.6975 340.162 39.3046 331.311 41.8715C330.634 42.068 330.262 42.3542 329.991 43.0074C327.951 47.9364 323.277 51.0149 317.524 50.9995ZM334.518 18.5406C334.598 17.9496 334.685 17.5582 334.698 17.1643C334.942 9.78916 326.994 4.89768 320.416 8.42864C317.017 10.2532 313.707 12.2409 310.369 14.1742C310.107 14.3259 309.757 14.6227 309.749 14.8629C309.692 16.3957 309.72 17.9316 309.72 19.6125C310.233 19.3505 310.562 19.1987 310.875 19.0197C314.486 16.9599 318.112 14.9244 321.693 12.8153C322.723 12.2091 323.558 12.2342 324.576 12.8366C327.797 14.743 331.067 16.5693 334.518 18.5406ZM296.145 32.4518C296.069 33.0765 295.987 33.4702 295.977 33.8656C295.785 41.2505 303.708 46.1058 310.27 42.5733C313.665 40.7457 316.976 38.7639 320.31 36.8262C320.591 36.6626 320.935 36.3104 320.946 36.0331C321.009 34.5365 320.976 33.0359 320.976 31.3923C320.483 31.6388 320.154 31.7842 319.844 31.9613C316.366 33.9453 312.854 35.8742 309.434 37.9509C308.076 38.7757 307.017 38.7686 305.667 37.9387C302.609 36.0607 299.451 34.3429 296.145 32.4518ZM323.246 23.6115C323.246 24.2736 323.247 24.6794 323.246 25.0852C323.243 29.1182 323.2 33.1518 323.261 37.1838C323.28 38.4629 322.838 39.2797 321.689 39.8274C320.786 40.2575 319.937 40.7998 319.068 41.2987C316.699 42.6595 314.331 44.0238 311.804 45.478C312.362 45.8649 312.757 46.1831 313.192 46.4329C319.557 50.0922 327.504 45.7029 327.734 38.3408C327.853 34.5341 327.767 30.7207 327.742 26.9105C327.74 26.5939 327.587 26.1356 327.35 25.9871C326.071 25.1883 324.743 24.4665 323.246 23.6115ZM318.95 5.48624C318.607 5.28687 318.465 5.22604 318.349 5.13435C312.938 0.862516 304.06 4.20454 303.212 11.092C302.674 15.4679 302.986 19.9478 302.94 24.3812C302.937 24.5948 303.099 24.9034 303.279 25.0109C304.601 25.799 305.947 26.547 307.438 27.394C307.438 22.9654 307.537 18.7522 307.393 14.5472C307.329 12.6878 307.961 11.6557 309.601 10.804C312.687 9.2017 315.656 7.37716 318.95 5.48624ZM299.666 12.4756C299.069 12.7473 298.663 12.9012 298.286 13.1076C291.735 16.7041 291.562 25.8381 298.011 29.7425C301.28 31.7216 304.631 33.5672 307.956 35.4526C308.211 35.5973 308.639 35.725 308.854 35.6117C310.219 34.8913 311.546 34.1009 313.004 33.2661C312.684 33.057 312.514 32.9333 312.332 32.829C308.602 30.6827 304.89 28.505 301.127 26.4158C300.035 25.809 299.614 25.028 299.64 23.8311C299.69 21.5416 299.663 19.2504 299.666 16.9599C299.668 15.5332 299.666 14.1067 299.666 12.4756ZM317.624 17.7727C321.784 20.1596 325.695 22.4341 329.641 24.6457C330.647 25.2094 331.036 25.9398 331.022 27.0601C330.981 30.4257 331.007 33.7921 331.008 37.1581C331.008 37.5484 331.008 37.9389 331.008 38.5395C331.639 38.2429 332.079 38.0699 332.486 37.8406C338.941 34.2015 339.064 25.1097 332.673 21.2614C329.401 19.291 326.053 17.4432 322.729 15.5596C322.47 15.4131 322.041 15.2703 321.83 15.3824C320.466 16.1051 319.14 16.8995 317.624 17.7727ZM320.803 25.6152C321.632 23.0134 320.3 21.7623 318.129 20.5665C316.119 19.4596 314.687 19.2897 312.592 20.509C310.359 21.8089 309.518 23.1417 309.607 25.7504C309.685 28.037 310.423 29.1475 312.348 30.3304C314.584 31.7047 316.181 31.6883 318.371 30.2884C320.268 29.076 321.703 28.0501 320.803 25.6152Z" fill="#BFBFBF"/>
<path d="M374.172 28.0707C373.992 29.5829 373.973 31.8346 373.42 33.9486C372.117 38.9327 368.205 42.0633 362.985 42.5347C360.722 42.7389 358.452 42.6977 356.241 42.0189C351.487 40.5598 348.753 37.2736 348.006 32.5126C347.433 28.8633 347.404 25.1405 348.152 21.485C349.242 16.1551 353.574 12.446 359.072 12.236C361.092 12.1587 363.188 12.2325 365.144 12.6836C369.953 13.7924 373.199 17.5482 373.798 22.3944C374.001 24.0387 374.023 25.7051 374.172 28.0707ZM368.877 27.3458C368.82 27.3407 368.762 27.3354 368.705 27.3303C368.705 26.2957 368.739 25.2598 368.699 24.2267C368.533 19.855 366.371 17.0922 362.373 16.4812C358.243 15.85 354.038 17.3759 353.333 22.6124C352.914 25.7273 353.021 28.9637 353.312 32.1074C353.658 35.8595 356.532 38.2149 360.344 38.393C364.519 38.5881 367.439 36.6328 368.295 32.8234C368.695 31.0431 368.695 29.1746 368.877 27.3458Z" fill="#BFBFBF"/>
<path d="M383.873 39.2622C383.873 42.6431 383.873 45.992 383.873 49.4206C382.169 49.4206 380.551 49.4206 378.836 49.4206C378.836 39.802 378.836 30.1811 378.836 20.4949C380.394 20.4949 381.941 20.4949 383.593 20.4949C383.593 21.4693 383.593 22.4511 383.593 23.6125C383.842 23.4289 383.98 23.3798 384.027 23.2861C386.381 18.6322 396.073 18.3777 398.79 24.87C399.347 26.2001 399.64 27.7085 399.713 29.1516C399.819 31.2436 399.82 33.383 399.501 35.4464C398.591 41.3339 391.524 44.536 386.377 41.4482C385.482 40.9111 384.776 40.0639 383.873 39.2622ZM383.77 31.2634C383.808 31.2669 383.847 31.2703 383.885 31.2738C383.885 32.0123 383.847 32.7529 383.892 33.4887C384.068 36.3713 386.209 38.4647 389.063 38.5782C391.886 38.6903 394.109 36.9455 394.432 34.0693C394.644 32.1819 394.622 30.2368 394.432 28.3443C394.17 25.7327 392.242 24.066 389.685 23.9248C387 23.7768 384.769 25.2587 384.154 27.7622C383.876 28.8929 383.889 30.094 383.77 31.2634Z" fill="#BFBFBF"/>
<path d="M461.381 12.6685C463.028 12.6685 464.631 12.7106 466.229 12.6483C466.895 12.6223 467.12 12.9047 467.315 13.4486C469.541 19.6602 471.783 25.866 474.023 32.073C475.21 35.3615 476.4 38.6489 477.64 42.0813C475.981 42.0813 474.435 42.1172 472.893 42.0469C472.628 42.0347 472.258 41.6135 472.15 41.3071C471.599 39.7434 471.09 38.1633 470.625 36.5722C470.441 35.9443 470.173 35.6834 469.469 35.6907C465.968 35.7272 462.465 35.7278 458.963 35.6843C458.21 35.675 457.929 35.9862 457.739 36.6299C457.29 38.1496 456.777 39.6502 456.321 41.1681C456.13 41.8066 455.844 42.1421 455.085 42.1041C453.713 42.0353 452.335 42.0846 450.754 42.0846C454.324 32.2026 457.847 22.4496 461.381 12.6685ZM464.332 17.0047C464.239 17.0073 464.146 17.01 464.054 17.0129C462.497 21.8633 460.939 26.7139 459.357 31.6436C462.655 31.6436 465.757 31.6436 469.002 31.6436C467.423 26.6937 465.877 21.8491 464.332 17.0047Z" fill="#BFBFBF"/>
<path d="M492.705 37.9592C494.842 37.9592 496.882 37.9592 499 37.9592C499 39.3397 499 40.647 499 42.0197C493.044 42.0197 487.101 42.0197 481.062 42.0197C481.062 40.6998 481.062 39.3986 481.062 37.9785C483.109 37.9785 485.138 37.9785 487.231 37.9785C487.231 30.8909 487.231 23.9198 487.231 16.8228C485.193 16.8228 483.166 16.8228 481.053 16.8228C481.053 15.3956 481.053 14.0933 481.053 12.7288C487.029 12.7288 492.975 12.7288 499 12.7288C499 14.0373 499 15.343 499 16.7719C496.917 16.7719 494.849 16.7719 492.705 16.7719C492.705 23.862 492.705 30.8305 492.705 37.9592Z" fill="#BFBFBF"/>
<path d="M427.291 20.4722C428.877 20.4722 430.433 20.4722 432.11 20.4722C432.11 21.4919 432.11 22.5092 432.11 23.8022C432.407 23.4725 432.545 23.3722 432.611 23.237C433.523 21.3838 435.105 20.4964 437.067 20.0852C440.499 19.3657 443.872 20.4107 445.351 23.0039C446.076 24.2762 446.612 25.8306 446.659 27.2757C446.818 32.153 446.72 37.0384 446.72 42.0025C445.034 42.0025 443.384 42.0025 441.57 42.0025C441.57 41.2719 441.574 40.5818 441.569 39.8916C441.542 36.0096 441.629 32.1223 441.445 28.2479C441.314 25.4951 439.527 24.1674 436.695 24.3084C434.08 24.4387 432.44 26.105 432.423 28.7428C432.395 32.9607 432.413 37.179 432.409 41.3971C432.408 41.5771 432.382 41.7572 432.361 42.0096C430.679 42.0096 429.024 42.0096 427.291 42.0096C427.291 34.8234 427.291 27.6689 427.291 20.4722Z" fill="#BFBFBF"/>
<path d="M423.23 32.8885C418.286 32.8885 413.461 32.8885 408.665 32.8885C408.18 35.1546 409.088 37.4081 410.802 38.3814C413.371 39.8409 416.27 39.1149 419.438 36.1936C420.448 36.7713 421.472 37.3566 422.545 37.9698C420.936 40.7021 418.539 42.0989 415.492 42.4428C411.958 42.8413 408.572 42.4345 406.037 39.6904C405.051 38.623 404.088 37.149 403.948 35.7765C403.644 32.7972 403.529 29.7119 403.976 26.7657C404.56 22.9164 408.054 20.186 412.043 20.025C413.798 19.9542 415.664 20.0319 417.318 20.5499C421.112 21.7377 422.889 24.6552 423.211 28.475C423.328 29.8659 423.23 31.2751 423.23 32.8885ZM418.542 29.4514C418.613 27.2723 418.367 25.2968 416.41 24.1066C414.481 22.9334 412.411 22.9303 410.528 24.1985C408.701 25.4289 408.471 27.3676 408.533 29.4514C411.887 29.4514 415.141 29.4514 418.542 29.4514Z" fill="#BFBFBF"/>
</g>
<g clip-path="url(#clip1_129:927)">
<path d="M249.28 34.5665C250.246 30.4154 251.275 26.2776 252.14 22.1056C252.406 20.8179 252.909 20.3508 254.179 20.4868C255.05 20.58 255.94 20.5046 257 20.5046C256.215 23.3901 255.489 26.0546 254.764 28.7188C253.703 32.6153 252.616 36.5048 251.602 40.4137C251.373 41.2944 251.014 41.7276 250.077 41.6173C249.614 41.5625 249.134 41.5651 248.669 41.617C247.758 41.7186 247.362 41.3339 247.099 40.449C245.933 36.5341 244.686 32.6435 243.464 28.7456C243.328 28.3115 243.16 27.887 242.857 27.0337C242.567 27.8458 242.392 28.2844 242.253 28.7346C241.061 32.593 239.841 36.4427 238.715 40.3203C238.427 41.3138 237.992 41.7559 236.957 41.6195C236.449 41.5526 235.897 41.7093 235.417 41.5755C235.003 41.4603 234.424 41.1436 234.329 40.8018C232.484 34.1547 230.699 27.491 228.905 20.8298C228.895 20.7897 228.924 20.7389 228.973 20.521C230.141 20.521 231.361 20.4335 232.554 20.5743C232.911 20.6164 233.371 21.252 233.481 21.6915C234.468 25.6549 235.387 29.6356 236.334 33.6091C236.405 33.9089 236.537 34.1943 236.759 34.8158C237.084 33.8612 237.322 33.2295 237.516 32.5846C238.582 29.0318 239.717 25.4966 240.658 21.91C241.021 20.5249 241.813 20.51 242.917 20.4738C244.101 20.4352 244.757 20.6802 245.11 21.9833C246.14 25.789 247.341 29.5486 248.481 33.3243C248.611 33.7531 248.779 34.1697 248.929 34.5919C249.046 34.5835 249.163 34.575 249.28 34.5665Z" fill="#BFBFBF"/>
<path d="M83.0342 32.4084C83.2398 34.9916 84.2073 36.8043 86.361 37.8218C88.7755 38.9627 91.264 38.3109 94.1393 35.8147C94.901 36.5175 95.6765 37.2327 96.5302 38.0202C94.8525 40.4578 92.5161 41.5885 89.7614 41.8962C83.4307 42.6035 78.9033 38.8187 78.4205 32.4559C78.2257 29.8899 78.4978 27.3888 79.7079 25.0613C81.7197 21.1908 85.7468 19.3956 90.3111 20.3299C93.901 21.0646 96.401 24.2084 96.7515 28.4281C97.0821 32.4084 97.0821 32.4084 93.0767 32.4084C89.7998 32.4084 86.5232 32.4084 83.0342 32.4084ZM92.2304 29.0346C92.4047 25.7839 90.577 23.6769 87.7967 23.7477C85.1704 23.8143 83.0917 26.2369 83.3275 29.0346C86.2595 29.0346 89.1974 29.0346 92.2304 29.0346Z" fill="#BFBFBF"/>
<path d="M194.517 25.6741C194.689 25.8883 194.739 25.9222 194.744 25.9623C195.209 29.4741 195.209 29.4741 191.714 29.4741C188.993 29.4741 186.271 29.4741 183.382 29.4741C183.382 33.4785 183.382 37.3995 183.382 41.4637C181.714 41.4637 180.21 41.4637 178.532 41.4637C178.532 40.8936 178.532 40.3875 178.532 39.8814C178.532 31.5602 178.571 23.2391 178.496 14.9185C178.483 13.4344 178.966 13.1152 180.34 13.1363C185.177 13.2106 190.016 13.1998 194.853 13.1411C196.093 13.1262 196.612 13.4017 196.539 14.7706C196.424 16.9143 196.516 16.92 194.426 16.9205C191.185 16.9214 187.943 16.9561 184.703 16.9019C183.61 16.8836 183.218 17.2169 183.267 18.347C183.353 20.3649 183.337 22.3903 183.272 24.4099C183.24 25.4068 183.587 25.7063 184.563 25.6922C187.895 25.6445 191.227 25.6741 194.517 25.6741Z" fill="#BFBFBF"/>
<path d="M160.599 31.2963C160.405 32.4228 160.294 33.7906 159.924 35.0839C158.569 39.8235 154.806 42.2888 149.644 41.9244C145.299 41.6178 141.883 38.3809 141.135 33.8683C140.721 31.3762 140.762 28.9127 141.604 26.5039C143.133 22.1296 146.825 19.7521 151.54 20.0939C155.946 20.4134 159.33 23.4327 160.171 27.8469C160.372 28.902 160.44 29.9822 160.599 31.2963ZM156.172 30.7411C155.723 29.285 155.487 27.4989 154.662 26.0481C152.799 22.772 148.205 22.9283 146.529 26.3061C145.037 29.3127 145.054 32.501 146.401 35.5855C147.208 37.4345 148.78 38.3674 150.791 38.3341C152.807 38.3005 154.344 37.3005 155.048 35.4094C155.563 34.0235 155.759 32.5185 156.172 30.7411Z" fill="#BFBFBF"/>
<path d="M227.499 31.3222C227.403 32.1645 227.376 33.2077 227.155 34.208C225.982 39.5246 222.071 42.3505 216.561 41.9204C211.852 41.5529 208.24 37.7695 208.003 32.6844C207.912 30.7462 208.026 28.7083 208.536 26.8502C209.817 22.1811 213.895 19.6121 218.74 20.1097C223.362 20.5844 226.747 23.9359 227.298 28.6041C227.397 29.4419 227.425 30.2881 227.499 31.3222ZM223.175 30.8229C222.734 29.3191 222.435 27.6939 221.78 26.2284C221.004 24.4917 219.434 23.7135 217.531 23.7561C215.673 23.7976 214.233 24.6788 213.485 26.352C212.117 29.4086 212.05 32.5563 213.417 35.6385C214.216 37.439 215.753 38.3343 217.698 38.3337C219.714 38.3332 221.279 37.3653 222.004 35.4832C222.552 34.0621 222.765 32.5117 223.175 30.8229Z" fill="#BFBFBF"/>
<path d="M105.271 41.5043C103.649 41.5043 102.267 41.5043 100.841 41.5043C100.796 41.086 100.732 40.7659 100.731 40.4455C100.725 34.2438 100.749 28.0421 100.706 21.8407C100.698 20.7704 101.065 20.4145 102.092 20.4918C102.974 20.5584 103.864 20.5056 104.866 20.5056C105.016 21.2562 105.147 21.9138 105.318 22.769C107.107 20.9352 109.139 20.0382 111.565 20.0735C115.25 20.1269 117.666 22.0411 117.869 25.6997C118.147 30.7109 118.067 35.742 118.093 40.7651C118.095 41.0411 117.672 41.5421 117.421 41.5588C116.17 41.6412 114.911 41.5963 113.481 41.5963C113.481 40.9412 113.481 40.4416 113.481 39.942C113.481 35.9015 113.493 31.861 113.477 27.8206C113.466 25.0674 112.284 23.8484 109.694 23.8529C106.989 23.8577 105.274 25.4606 105.272 27.995C105.269 31.9415 105.271 35.888 105.271 39.8345C105.271 40.3451 105.271 40.8554 105.271 41.5043Z" fill="#BFBFBF"/>
<path d="M120.523 35.1217C122.362 35.1217 123.749 35.1217 125.145 35.1217C126.571 38.1591 128.283 39.0702 131.343 38.3925C132.583 38.1179 133.559 37.4726 133.726 36.1339C133.897 34.7644 133.094 33.903 131.867 33.4928C130.582 33.0632 129.238 32.8053 127.956 32.3644C126.634 31.9097 125.253 31.4922 124.08 30.7643C121.087 28.907 120.721 25.0641 123.17 22.5244C126.376 19.1992 133.346 19.2359 136.51 22.6006C137.545 23.7014 138.1 24.9902 138.035 26.6163C136.541 26.6163 135.107 26.6163 133.679 26.6163C132.662 23.9919 131.013 23.0565 128.445 23.6328C127.088 23.9374 126.138 24.9177 126.08 26.082C126.012 27.4687 126.9 28.1289 128.04 28.4893C129.424 28.9268 130.864 29.189 132.236 29.6556C133.514 30.09 134.841 30.528 135.958 31.254C138.713 33.0429 139.082 36.9575 136.853 39.377C133.429 43.0946 125.331 42.8233 122.285 38.8001C121.534 37.8091 121.177 36.5203 120.523 35.1217Z" fill="#BFBFBF"/>
<path d="M60 16.921C60 15.621 60 14.5526 60 13.2997C60.4732 13.256 60.9619 13.1718 61.4506 13.171C67.9306 13.1622 74.4114 13.2176 80.8905 13.1284C82.4909 13.1064 82.4661 13.9102 82.4474 15.0353C82.4297 16.1155 82.5707 17.0814 80.9159 16.9538C79.0487 16.8095 77.1579 16.9967 75.285 16.8956C73.9641 16.8242 73.5107 17.1917 73.5248 18.5965C73.5961 25.7395 73.5304 32.884 73.584 40.0273C73.593 41.2353 73.3164 41.6674 72.0332 41.6395C68.8088 41.5692 68.8074 41.6324 68.8074 38.4633C68.8074 31.8365 68.78 25.2094 68.831 18.5832C68.8409 17.3224 68.5104 16.8358 67.179 16.8934C64.8395 16.9939 62.4932 16.921 60 16.921Z" fill="#BFBFBF"/>
<path d="M204.131 13.0463C204.131 22.6399 204.131 32.0265 204.131 41.5109C202.669 41.5109 201.28 41.5109 199.725 41.5109C199.691 41.0674 199.626 40.6218 199.626 40.1761C199.62 31.7096 199.649 23.2428 199.595 14.7765C199.587 13.4471 199.912 12.8623 201.314 13.0274C202.189 13.1301 203.085 13.0463 204.131 13.0463Z" fill="#BFBFBF"/>
<path d="M163.922 41.6079C163.922 36.9572 163.922 32.5927 163.922 28.2282C163.922 26.0675 163.953 23.906 163.908 21.7462C163.889 20.8616 164.142 20.4072 165.09 20.5012C165.461 20.5382 165.841 20.5221 166.215 20.5015C167.526 20.4298 168.837 20.344 168.218 22.7555C168.814 22.2241 169.044 21.9641 169.323 21.7806C170.096 21.2734 170.833 20.6228 171.686 20.3428C174.226 19.5102 174.857 20.0081 174.857 22.5916C174.857 23.1939 174.857 23.7959 174.857 24.405C173.644 24.5089 172.519 24.4956 171.443 24.7209C169.393 25.1499 168.44 26.4229 168.438 28.5034C168.434 32.4022 168.401 36.3015 168.459 40.1995C168.475 41.3099 168.136 41.7234 167.02 41.6254C166.053 41.5407 165.073 41.6079 163.922 41.6079Z" fill="#BFBFBF"/>
</g>
<defs>
<clipPath id="clip0_129:927">
<rect width="209" height="51" fill="white" transform="translate(290)"/>
</clipPath>
<clipPath id="clip1_129:927">
<rect width="197" height="29" fill="white" transform="translate(60 13)"/>
</clipPath>
</defs>
</svg>
