<svg width="317" height="552" viewBox="0 0 317 552" fill="none" xmlns="http://www.w3.org/2000/svg">
<path fill-rule="evenodd" clip-rule="evenodd" d="M263.295 398.477H20.7491C21.8696 369.695 39.5449 357.398 66.5009 356.717C84.2944 308.49 123.281 357.694 126.088 319.546C129.385 274.685 130.333 221.811 130.333 221.811L153.319 222.192C153.319 222.192 155.238 250.499 159.221 308.169C162.045 349.019 190.817 311.134 228.609 335.89C247.686 348.387 246.835 378.619 246.835 378.619C246.835 378.619 263.295 379.443 263.295 398.477Z" fill="white"/>
<path fill-rule="evenodd" clip-rule="evenodd" d="M104.086 398.477H44.5934C47.1813 385.714 58.2302 376.403 71.2444 375.127C73.7401 374.89 76.3049 374.939 78.8986 375.315C80.3913 375.536 81.8438 375.851 83.2501 376.265C87.106 377.398 90.5987 379.232 93.5843 381.597C98.9733 385.847 102.731 391.814 104.086 398.477Z" fill="#434343"/>
<path fill-rule="evenodd" clip-rule="evenodd" d="M236.309 398.477H204.113C205.433 392.604 209.635 387.846 215.162 386.039C216.465 385.614 217.842 385.349 219.277 385.277C220.102 385.233 220.92 385.255 221.715 385.338C228.73 386.051 234.591 391.366 236.309 398.477Z" fill="#434343"/>
<path fill-rule="evenodd" clip-rule="evenodd" d="M183.964 398.477H91.9646C91.5842 394.842 91.6706 391.106 92.27 387.333C92.5813 385.371 93.0251 383.454 93.5842 381.597C99.9472 360.568 121.74 346.797 144.932 350.179C150.414 350.98 155.52 352.672 160.12 355.08C176.068 363.413 185.906 380.343 183.964 398.477Z" fill="#434343"/>
<path fill-rule="evenodd" clip-rule="evenodd" d="M110.916 314.843C110.162 319.596 105.531 322.863 100.573 322.14C95.6145 321.416 92.207 316.977 92.9615 312.224C93.716 307.47 98.3465 304.203 103.305 304.927C108.263 305.65 111.671 310.089 110.916 314.843Z" fill="#434343"/>
<path fill-rule="evenodd" clip-rule="evenodd" d="M176.847 316.493C176.536 318.455 174.625 319.803 172.579 319.505C170.532 319.206 169.126 317.374 169.438 315.412C169.749 313.45 171.66 312.102 173.706 312.401C175.752 312.7 177.159 314.531 176.847 316.493Z" fill="#434343"/>
<path fill-rule="evenodd" clip-rule="evenodd" d="M284.655 376.229C283.937 380.756 279.526 383.867 274.804 383.179C270.082 382.49 266.837 378.261 267.555 373.734C268.274 369.207 272.684 366.096 277.407 366.785C282.129 367.473 285.374 371.702 284.655 376.229Z" fill="#434343"/>
<path fill-rule="evenodd" clip-rule="evenodd" d="M115.266 204.79H170.183C173.367 204.79 175.947 202.316 175.947 199.265C175.947 196.213 173.367 193.739 170.183 193.739H115.266C112.083 193.739 109.503 196.213 109.503 199.265C109.503 202.316 112.083 204.79 115.266 204.79ZM127.474 228.085H157.976L169.504 204.79H115.946L127.474 228.085Z" fill="white"/>
<path opacity="0.402158" fill-rule="evenodd" clip-rule="evenodd" d="M157.879 228.084H127.376L115.849 204.79H169.407L157.879 228.084Z" fill="#484848"/>
<path d="M94.3323 266.696C98.8053 269.071 102.094 273.515 102.755 278.828C102.828 279.415 102.869 279.998 102.879 280.574C102.922 283.187 99.6274 284.332 98.0337 282.261C96.2153 279.897 93.8067 278.534 91.2879 278.757C86.4551 279.185 83.0488 285.296 83.6782 292.408C83.6794 292.423 83.6805 292.438 83.6823 292.453C83.8748 294.573 81.7111 296.105 79.8039 295.16C74.9728 292.77 71.4662 287.993 70.9561 282.23C70.3458 275.336 74.208 269.078 80.1451 266.319V153.877C75.1213 151.175 71.7064 145.87 71.7064 139.768C71.7064 133.132 75.7447 127.438 81.4989 125.01C83.5827 120.931 87.8318 118.121 92.7055 118.121H192.333C196.772 118.121 200.694 120.453 202.932 123.951C210.263 122.795 217.65 126.88 220.387 134.092C223.341 141.874 219.828 150.523 212.507 154.128V267.591C217.801 270.695 221.052 276.718 220.31 283.204C219.652 288.952 216.025 293.637 211.134 295.904C209.202 296.799 207.079 295.212 207.326 293.099C207.328 293.083 207.329 293.068 207.331 293.054C208.143 285.96 204.894 279.763 200.074 279.212C197.562 278.925 195.119 280.226 193.24 282.542C191.594 284.572 188.33 283.343 188.44 280.732C188.465 280.156 188.52 279.574 188.608 278.99C189.462 273.319 193.302 268.723 198.32 266.628V162.337C196.537 163.309 194.497 163.863 192.333 163.863H94.3323V266.696Z" fill="white"/>
<path fill-rule="evenodd" clip-rule="evenodd" d="M144.168 151.533C140.364 151.533 137.252 148.421 137.252 144.619V135.717C137.252 131.914 140.364 128.803 144.168 128.803H182.428C186.232 128.803 189.344 131.914 189.344 135.717V144.619C189.344 148.421 186.232 151.533 182.428 151.533H144.168ZM142.765 140.168C142.765 144.523 146.297 148.053 150.653 148.053C155.008 148.053 158.54 144.523 158.54 140.168C158.54 135.813 155.008 132.283 150.653 132.283C146.297 132.283 142.765 135.813 142.765 140.168ZM164.411 140.168C164.411 144.523 167.942 148.053 172.299 148.053C176.654 148.053 180.185 144.523 180.185 140.168C180.185 135.813 176.654 132.283 172.299 132.283C167.942 132.283 164.411 135.813 164.411 140.168Z" fill="#3E3D3D"/>
<path opacity="0.401228" fill-rule="evenodd" clip-rule="evenodd" d="M198.32 266.388V162.373C200.007 160.791 201.136 159.645 201.704 158.934C202.577 157.842 203.329 156.786 203.781 156.23C203.9 156.084 204.038 155.839 204.065 155.787C204.092 155.736 204.086 155.732 204.135 155.736C204.639 155.775 204.989 155.787 205.413 155.787C206.397 155.787 207.593 155.677 208.93 155.395C209.372 155.302 209.992 155.123 210.751 154.869C211.108 154.75 211.693 154.504 212.507 154.131V266.388H198.32ZM202.932 123.951C210.263 122.795 217.65 126.88 220.387 134.092C223.525 142.359 219.365 151.605 211.095 154.741C208.785 155.618 206.399 155.925 204.092 155.732C204.617 154.351 204.906 152.854 204.906 151.294V130.691C204.906 128.216 204.181 125.902 202.932 123.951ZM83.8715 155.313C83.9862 155.339 84.1036 155.363 84.2239 155.385C84.6707 155.468 85.1896 155.577 85.7788 155.662C86.4157 155.739 87.0642 155.779 87.7219 155.779C96.5673 155.779 103.737 148.61 103.737 139.768C103.737 130.925 96.5673 123.757 87.7219 123.757C85.5148 123.757 83.412 124.203 81.4989 125.01C83.5827 120.931 87.8318 118.121 92.7055 118.121H108.481C115.396 118.121 121.053 123.777 121.053 130.691V151.294C121.053 158.207 115.396 163.863 108.481 163.863H94.3323V266.388H80.1451V153.884C80.244 153.936 80.341 153.985 80.436 154.034L80.4351 154.029C81.5153 154.582 82.6665 155.016 83.8715 155.313Z" fill="#484848"/>
<path d="M212.507 250.813H215.007V248.313H212.507V250.813ZM198.32 250.813V248.313H195.82V250.813H198.32ZM212.507 255.813V258.313H215.007V255.813H212.507ZM198.32 255.813H195.82V258.313H198.32V255.813ZM212.507 238.713H215.007V236.213H212.507V238.713ZM198.32 238.713V236.213H195.82V238.713H198.32ZM212.507 243.713V246.213H215.007V243.713H212.507ZM198.32 243.713H195.82V246.213H198.32V243.713ZM212.507 226.613H215.007V224.113H212.507V226.613ZM198.32 226.613V224.113H195.82V226.613H198.32ZM212.507 231.613V234.113H215.007V231.613H212.507ZM198.32 231.613H195.82V234.113H198.32V231.613ZM212.507 214.513H215.007V212.013H212.507V214.513ZM198.32 214.513V212.013H195.82V214.513H198.32ZM212.507 219.513V222.013H215.007V219.513H212.507ZM198.32 219.513H195.82V222.013H198.32V219.513ZM212.507 202.412H215.007V199.912H212.507V202.412ZM198.32 202.412V199.912H195.82V202.412H198.32ZM212.507 207.412V209.912H215.007V207.412H212.507ZM198.32 207.412H195.82V209.912H198.32V207.412ZM212.507 190.312H215.007V187.812H212.507V190.312ZM198.32 190.312V187.812H195.82V190.312H198.32ZM212.507 195.312V197.812H215.007V195.312H212.507ZM198.32 195.312H195.82V197.812H198.32V195.312ZM212.507 178.212H215.007V175.712H212.507V178.212ZM198.32 178.212V175.712H195.82V178.212H198.32ZM212.507 183.212V185.712H215.007V183.212H212.507ZM198.32 183.212H195.82V185.712H198.32V183.212ZM212.507 166.112H215.007V163.612H212.507V166.112ZM198.32 166.112V163.612H195.82V166.112H198.32ZM212.507 171.112V173.612H215.007V171.112H212.507ZM198.32 171.112H195.82V173.612H198.32V171.112ZM94.332 250.813H96.832V248.313H94.332V250.813ZM80.1448 250.813V248.313H77.6448V250.813H80.1448ZM94.332 255.813V258.313H96.832V255.813H94.332ZM80.1448 255.813H77.6448V258.313H80.1448V255.813ZM94.332 238.713H96.832V236.213H94.332V238.713ZM80.1448 238.713V236.213H77.6448V238.713H80.1448ZM94.332 243.713V246.213H96.832V243.713H94.332ZM80.1448 243.713H77.6448V246.213H80.1448V243.713ZM94.332 226.613H96.832V224.113H94.332V226.613ZM80.1448 226.613V224.113H77.6448V226.613H80.1448ZM94.332 231.613V234.113H96.832V231.613H94.332ZM80.1448 231.613H77.6448V234.113H80.1448V231.613ZM94.332 214.513H96.832V212.013H94.332V214.513ZM80.1448 214.513V212.013H77.6448V214.513H80.1448ZM94.332 219.513V222.013H96.832V219.513H94.332ZM80.1448 219.513H77.6448V222.013H80.1448V219.513ZM94.332 202.412H96.832V199.912H94.332V202.412ZM80.1448 202.412V199.912H77.6448V202.412H80.1448ZM94.332 207.412V209.912H96.832V207.412H94.332ZM80.1448 207.412H77.6448V209.912H80.1448V207.412ZM94.332 190.312H96.832V187.812H94.332V190.312ZM80.1448 190.312V187.812H77.6448V190.312H80.1448ZM94.332 195.312V197.812H96.832V195.312H94.332ZM80.1448 195.312H77.6448V197.812H80.1448V195.312ZM94.332 178.212H96.832V175.712H94.332V178.212ZM80.1448 178.212V175.712H77.6448V178.212H80.1448ZM94.332 183.212V185.712H96.832V183.212H94.332ZM80.1448 183.212H77.6448V185.712H80.1448V183.212ZM94.332 166.112H96.832V163.612H94.332V166.112ZM80.1448 166.112V163.612H77.6448V166.112H80.1448ZM94.332 171.112V173.612H96.832V171.112H94.332ZM80.1448 171.112H77.6448V173.612H80.1448V171.112ZM212.507 248.313H198.32V253.313H212.507V248.313ZM215.007 255.813V250.813H210.007V255.813H215.007ZM198.32 258.313H212.507V253.313H198.32V258.313ZM195.82 250.813V255.813H200.82V250.813H195.82ZM212.507 236.213H198.32V241.213H212.507V236.213ZM215.007 243.713V238.713H210.007V243.713H215.007ZM198.32 246.213H212.507V241.213H198.32V246.213ZM195.82 238.713V243.713H200.82V238.713H195.82ZM212.507 224.113H198.32V229.113H212.507V224.113ZM215.007 231.613V226.613H210.007V231.613H215.007ZM198.32 234.113H212.507V229.113H198.32V234.113ZM195.82 226.613V231.613H200.82V226.613H195.82ZM212.507 212.013H198.32V217.013H212.507V212.013ZM215.007 219.513V214.513H210.007V219.513H215.007ZM198.32 222.013H212.507V217.013H198.32V222.013ZM195.82 214.513V219.513H200.82V214.513H195.82ZM212.507 199.912H198.32V204.912H212.507V199.912ZM215.007 207.412V202.412H210.007V207.412H215.007ZM198.32 209.912H212.507V204.912H198.32V209.912ZM195.82 202.412V207.412H200.82V202.412H195.82ZM212.507 187.812H198.32V192.812H212.507V187.812ZM215.007 195.312V190.312H210.007V195.312H215.007ZM198.32 197.812H212.507V192.812H198.32V197.812ZM195.82 190.312V195.312H200.82V190.312H195.82ZM212.507 175.712H198.32V180.712H212.507V175.712ZM215.007 183.212V178.212H210.007V183.212H215.007ZM198.32 185.712H212.507V180.712H198.32V185.712ZM195.82 178.212V183.212H200.82V178.212H195.82ZM212.507 163.612H198.32V168.612H212.507V163.612ZM215.007 171.112V166.112H210.007V171.112H215.007ZM198.32 173.612H212.507V168.612H198.32V173.612ZM195.82 166.112V171.112H200.82V166.112H195.82ZM94.332 248.313H80.1448V253.313H94.332V248.313ZM96.832 255.813V250.813H91.832V255.813H96.832ZM80.1448 258.313H94.332V253.313H80.1448V258.313ZM77.6448 250.813V255.813H82.6448V250.813H77.6448ZM94.332 236.213H80.1448V241.213H94.332V236.213ZM96.832 243.713V238.713H91.832V243.713H96.832ZM80.1448 246.213H94.332V241.213H80.1448V246.213ZM77.6448 238.713V243.713H82.6448V238.713H77.6448ZM94.332 224.113H80.1448V229.113H94.332V224.113ZM96.832 231.613V226.613H91.832V231.613H96.832ZM80.1448 234.113H94.332V229.113H80.1448V234.113ZM77.6448 226.613V231.613H82.6448V226.613H77.6448ZM94.332 212.013H80.1448V217.013H94.332V212.013ZM96.832 219.513V214.513H91.832V219.513H96.832ZM80.1448 222.013H94.332V217.013H80.1448V222.013ZM77.6448 214.513V219.513H82.6448V214.513H77.6448ZM94.332 199.912H80.1448V204.912H94.332V199.912ZM96.832 207.412V202.412H91.832V207.412H96.832ZM80.1448 209.912H94.332V204.912H80.1448V209.912ZM77.6448 202.412V207.412H82.6448V202.412H77.6448ZM94.332 187.812H80.1448V192.812H94.332V187.812ZM96.832 195.312V190.312H91.832V195.312H96.832ZM80.1448 197.812H94.332V192.812H80.1448V197.812ZM77.6448 190.312V195.312H82.6448V190.312H77.6448ZM94.332 175.712H80.1448V180.712H94.332V175.712ZM96.832 183.212V178.212H91.832V183.212H96.832ZM80.1448 185.712H94.332V180.712H80.1448V185.712ZM77.6448 178.212V183.212H82.6448V178.212H77.6448ZM94.332 163.612H80.1448V168.612H94.332V163.612ZM96.832 171.112V166.112H91.832V171.112H96.832ZM80.1448 173.612H94.332V168.612H80.1448V173.612ZM77.6448 166.112V171.112H82.6448V166.112H77.6448Z" fill="#3E3D3D"/>
<path fill-rule="evenodd" clip-rule="evenodd" d="M131.987 193.7H152.027V161.912H131.987V193.7Z" fill="#3E3D3D"/>
<path fill-rule="evenodd" clip-rule="evenodd" d="M173.404 87.76H181.099C184.159 87.76 186.663 85.257 186.663 82.1974C186.663 79.1384 184.159 76.6348 181.099 76.6348H173.404C170.344 76.6348 167.84 79.1384 167.84 82.1974C167.84 85.257 170.344 87.76 173.404 87.76Z" fill="#3E3D3D"/>
<path d="M143.317 98.2735C144.478 95.13 148.885 93.2743 153.158 94.1286C157.432 94.9829 159.955 98.2238 158.794 101.367L152.934 117.225C151.772 120.369 151.382 121.27 146.108 121.27C143.876 121.27 140.471 121.27 138.545 121.27C135.791 121.27 134.945 119.49 137.457 114.132L143.317 98.2735Z" fill="#3E3D3D"/>
<path fill-rule="evenodd" clip-rule="evenodd" d="M171.013 32.844C167.707 32.844 165.027 35.5227 165.027 38.8273C165.027 42.1318 167.707 44.8111 171.013 44.8111C174.318 44.8111 176.998 42.1318 176.998 38.8273C176.998 35.5227 174.318 32.844 171.013 32.844ZM125.923 89.2672C125.923 102.455 136.717 113.246 149.909 113.246H152.214C165.406 113.246 176.2 102.455 176.2 89.2672V76.3245C176.2 63.1365 165.406 52.346 152.214 52.346H149.909C136.717 52.346 125.923 63.1365 125.923 76.3245V89.2672Z" fill="white"/>
<path d="M168.608 44.3084C164.684 47.7246 162.45 51.5023 161.776 56.6478C161.652 57.5944 160.784 58.2613 159.837 58.1374C158.89 58.0134 158.223 57.1456 158.347 56.199C159.123 50.2733 161.666 45.8837 165.958 42.0339C166.593 43.0315 167.515 43.8285 168.608 44.3084Z" fill="#3E3D3D"/>
<path fill-rule="evenodd" clip-rule="evenodd" d="M158.914 78.0064C159.216 79.7154 158.075 81.3449 156.366 81.6468C154.657 81.9487 153.027 80.8084 152.724 79.0994C152.422 77.391 153.563 75.7609 155.273 75.459C156.982 75.1571 158.613 76.2974 158.914 78.0064Z" fill="#3E3D3D"/>
<path fill-rule="evenodd" clip-rule="evenodd" d="M175.231 78.0734C175.533 79.7824 174.392 81.4119 172.683 81.7138C170.973 82.0157 169.343 80.8754 169.041 79.1664C168.739 77.458 169.88 75.8279 171.589 75.526C173.298 75.2241 174.929 76.3649 175.231 78.0734Z" fill="#3E3D3D"/>
<path opacity="0.403971" fill-rule="evenodd" clip-rule="evenodd" d="M162.604 74.6135L170.534 87.1943L161.998 87.4006L162.604 74.6135Z" fill="#484848"/>
<path fill-rule="evenodd" clip-rule="evenodd" d="M122.566 86.5697H130.032V75.4445H122.566C119.505 75.4445 117.002 77.948 117.002 81.0071C117.002 84.0667 119.505 86.5697 122.566 86.5697Z" fill="#3E3D3D"/>
<path d="M160.991 93.2701C157.214 93.9097 153.684 91.7535 153.301 89.4937" stroke="#3E3D3D" stroke-width="4"/>
</svg>
